<svg width="24" height="18" viewBox="0 0 24 18" fill="none" xmlns="http://www.w3.org/2000/svg">
<path d="M7.8588 13.04C7.4908 13.04 7.20546 12.9467 7.0028 12.76C6.8028 12.5707 6.69613 12.3027 6.6828 11.956C6.68013 11.884 6.6788 11.7667 6.6788 11.604C6.6788 11.4387 6.68013 11.3187 6.6828 11.244C6.69613 10.9027 6.80413 10.6373 7.0068 10.448C7.20946 10.256 7.49346 10.16 7.8588 10.16C8.09613 10.16 8.3028 10.2013 8.4788 10.284C8.6548 10.364 8.7908 10.4747 8.8868 10.616C8.98546 10.7573 9.03746 10.916 9.0428 11.092V11.1C9.0428 11.1213 9.03346 11.14 9.0148 11.156C8.9988 11.1693 8.98013 11.176 8.9588 11.176H8.5708C8.5388 11.176 8.5148 11.1693 8.4988 11.156C8.4828 11.14 8.46946 11.1133 8.4588 11.076C8.4188 10.9107 8.34946 10.7947 8.2508 10.728C8.15213 10.6587 8.02146 10.624 7.8588 10.624C7.47746 10.624 7.2788 10.8373 7.2628 11.264C7.26013 11.336 7.2588 11.4467 7.2588 11.596C7.2588 11.7453 7.26013 11.8587 7.2628 11.936C7.2788 12.3627 7.47746 12.576 7.8588 12.576C8.0188 12.576 8.14813 12.5427 8.2468 12.476C8.34813 12.4067 8.4188 12.2893 8.4588 12.124C8.46946 12.0867 8.4828 12.0613 8.4988 12.048C8.5148 12.032 8.5388 12.024 8.5708 12.024H8.9588C8.9828 12.024 9.0028 12.032 9.0188 12.048C9.03746 12.064 9.04546 12.084 9.0428 12.108C9.03746 12.284 8.98546 12.4427 8.8868 12.584C8.7908 12.7253 8.6548 12.8373 8.4788 12.92C8.3028 13 8.09613 13.04 7.8588 13.04ZM10.2628 13C10.1828 13 10.1308 12.9627 10.1068 12.888L9.25077 10.32C9.2481 10.312 9.24677 10.3 9.24677 10.284C9.24677 10.26 9.25477 10.24 9.27077 10.224C9.28677 10.208 9.30677 10.2 9.33077 10.2H9.68677C9.72143 10.2 9.74943 10.2093 9.77077 10.228C9.7921 10.2467 9.80677 10.2667 9.81477 10.288L10.4828 12.336L11.1548 10.288C11.1601 10.2667 11.1734 10.2467 11.1948 10.228C11.2161 10.2093 11.2441 10.2 11.2788 10.2H11.6388C11.6601 10.2 11.6788 10.208 11.6948 10.224C11.7134 10.24 11.7228 10.26 11.7228 10.284L11.7148 10.32L10.8628 12.888C10.8361 12.9627 10.7841 13 10.7068 13H10.2628ZM12.962 13C12.882 13 12.83 12.9627 12.806 12.888L11.95 10.32C11.9473 10.312 11.946 10.3 11.946 10.284C11.946 10.26 11.954 10.24 11.97 10.224C11.986 10.208 12.006 10.2 12.03 10.2H12.386C12.4207 10.2 12.4487 10.2093 12.47 10.228C12.4913 10.2467 12.506 10.2667 12.514 10.288L13.182 12.336L13.854 10.288C13.8593 10.2667 13.8727 10.2467 13.894 10.228C13.9153 10.2093 13.9433 10.2 13.978 10.2H14.338C14.3593 10.2 14.378 10.208 14.394 10.224C14.4127 10.24 14.422 10.26 14.422 10.284L14.414 10.32L13.562 12.888C13.5353 12.9627 13.4833 13 13.406 13H12.962Z" fill="#A2A2A2"/>
<rect x="0.5" y="0.5" width="23" height="17" rx="2.5" stroke="#A2A2A2"/>
<line x1="1" y1="5.5" x2="23" y2="5.5" stroke="#A2A2A2"/>
<line x1="1" y1="7.5" x2="24" y2="7.5" stroke="#A2A2A2"/>
<rect x="2.5" y="10.5" width="2" height="2" rx="0.5" stroke="#A2A2A2"/>
</svg>
