<svg width="80" height="80" viewBox="0 0 80 80" fill="none" xmlns="http://www.w3.org/2000/svg">
<path d="M78.33 43.8891C77.2551 42.8142 75.8259 42.2222 74.3057 42.2222C72.7854 42.2222 71.3565 42.8142 70.2813 43.889L62.9453 51.225C60.4489 53.7214 57.3781 55.434 54.0313 56.2419C54.3008 55.5721 54.4506 54.8418 54.4506 54.0767C54.4506 51.662 52.9974 49.5338 50.7483 48.6548L38.4115 43.8335C32.791 41.6369 26.4227 42.3011 21.3764 45.6106L12.2688 51.5834L11.6438 50.9584C9.84359 49.1585 6.915 49.1587 5.11509 50.9584L1.3531 54.7203C-0.446802 56.5202 -0.446802 59.4488 1.3531 61.2488L18.7522 78.6479C19.6242 79.5199 20.7835 80 22.0165 80C23.2498 80 24.4091 79.5197 25.2809 78.6479L29.0427 74.8861C29.9146 74.0141 30.3949 72.8549 30.3949 71.6217C30.3949 70.5093 30.0028 69.4578 29.2862 68.6222H50.7871C57.7892 68.6222 64.3724 65.8953 69.3241 60.9438L78.3303 51.9376C79.4052 50.8627 79.9972 49.4335 79.9972 47.9133C79.9969 46.3932 79.4049 44.9641 78.33 43.8891ZM26.8329 72.6764L23.071 76.4383C22.7893 76.72 22.4148 76.8752 22.0164 76.8752C21.618 76.8752 21.2435 76.72 20.9618 76.4383L3.56283 59.0393C2.9813 58.4577 2.9813 57.5114 3.56283 56.93L7.32466 53.1682C7.9062 52.5866 8.85255 52.5865 9.43408 53.1682L26.8329 70.5671C27.1147 70.8488 27.2699 71.2235 27.2699 71.6217C27.2699 72.02 27.1147 72.3946 26.8329 72.6764ZM76.1203 49.728L67.114 58.7343C62.7528 63.0955 56.9544 65.4974 50.7868 65.4974H26.1826L14.5255 53.8403L23.0901 48.2237C27.2917 45.4682 32.5938 44.9151 37.274 46.7441L49.6109 51.5654C50.6525 51.9726 51.3258 52.9583 51.3258 54.0769C51.3258 55.5637 50.1162 56.7731 48.6294 56.7731H33.7683C32.9055 56.7731 32.2059 57.4726 32.2059 58.3355C32.2059 59.1985 32.9055 59.898 33.7683 59.898H49.5513C55.4457 59.898 60.9872 57.6026 65.1551 53.4347L72.4911 46.0987C72.9759 45.6139 73.6204 45.347 74.3057 45.347C74.9913 45.347 75.6356 45.6139 76.1203 46.0987C76.6049 46.5835 76.8721 47.2278 76.8721 47.9133C76.8721 48.5989 76.6051 49.2434 76.1203 49.728Z" fill="white"/>
<path d="M40.0188 26.8003C38.4236 26.8003 37.1258 25.6872 37.1258 24.3193C37.1258 23.4564 36.4262 22.7569 35.5634 22.7569C34.7006 22.7569 34.001 23.4564 34.001 24.3193C34.001 26.907 35.8934 29.0897 38.4564 29.7324V30.2755C38.4564 31.1385 39.156 31.838 40.0188 31.838C40.8816 31.838 41.5812 31.1385 41.5812 30.2755V29.7324C44.1442 29.0898 46.0366 26.9071 46.0366 24.3193C46.0366 21.2282 43.3371 18.7135 40.0188 18.7135C38.4236 18.7135 37.1258 17.6006 37.1258 16.2325C37.1258 14.8645 38.4236 13.7516 40.0188 13.7516C41.614 13.7516 42.9118 14.8646 42.9118 16.2325C42.9118 17.0955 43.6114 17.7949 44.4742 17.7949C45.3369 17.7949 46.0366 17.0955 46.0366 16.2325C46.0366 13.6449 44.1442 11.4622 41.5812 10.8194V10.2763C41.5812 9.41336 40.8816 8.71387 40.0188 8.71387C39.156 8.71387 38.4564 9.41336 38.4564 10.2763V10.8194C35.8934 11.462 34.001 13.6447 34.001 16.2325C34.001 19.3236 36.7005 21.8383 40.0188 21.8383C41.614 21.8383 42.9118 22.9512 42.9118 24.3193C42.9118 25.6873 41.614 26.8003 40.0188 26.8003Z" fill="white"/>
<path d="M35.9031 38.8523C36.9973 39.9463 38.4519 40.5489 39.9992 40.5489C41.5464 40.5489 43.001 39.9464 44.0952 38.8523L58.0118 24.9357C63.7063 19.241 63.7063 9.97504 58.0117 4.28034C55.5327 1.80141 52.2441 0.296174 48.7515 0.0418123C45.6703 -0.182395 42.602 0.574597 39.9995 2.18545C36.6875 0.13087 32.6838 -0.515033 28.848 0.418043C28.0096 0.622094 27.4953 1.46705 27.6992 2.3056C27.9031 3.14415 28.7485 3.65818 29.5867 3.45444C32.888 2.65121 36.3475 3.3343 39.0769 5.3295C39.6262 5.73089 40.3716 5.73089 40.921 5.3295C45.5136 1.97249 51.7718 2.46012 55.8019 6.49007C60.2781 10.9664 60.2781 18.2499 55.8019 22.7262L41.8853 36.6428C41.3814 37.1467 40.7115 37.4242 39.999 37.4242C39.2864 37.4242 38.6164 37.1467 38.1127 36.6428L24.1961 22.7262C21.3378 19.8681 20.2029 15.8136 21.1602 11.8807C21.3642 11.0423 20.8499 10.1972 20.0115 9.99316C19.1731 9.78895 18.328 10.3033 18.1238 11.1419C16.9066 16.1433 18.3505 21.3001 21.9864 24.936L35.9031 38.8523Z" fill="white"/>
<path d="M23.0905 6.94842C23.503 6.94842 23.9045 6.78124 24.195 6.49063C24.4871 6.19846 24.6529 5.79692 24.6529 5.386C24.6529 4.97352 24.4871 4.57042 24.195 4.27981C23.9045 3.9892 23.5028 3.82202 23.0905 3.82202C22.6794 3.82202 22.2763 3.9892 21.9859 4.27981C21.6953 4.57042 21.5281 4.97352 21.5281 5.386C21.5281 5.79692 21.6951 6.19846 21.9859 6.49063C22.2763 6.78124 22.6794 6.94842 23.0905 6.94842Z" fill="white"/>
</svg>
