<svg width="94" height="86" viewBox="0 0 94 86" fill="none" xmlns="http://www.w3.org/2000/svg">
<g clip-path="url(#clip0)" filter="url(#filter0_d)">
<path d="M72.5948 21.6549C73.2503 20.9981 73.2503 19.9345 72.5948 19.2797C71.938 18.6229 70.8751 18.6229 70.2196 19.2797C69.5629 19.9345 69.5629 20.9981 70.2196 21.6549C70.8751 22.3097 71.938 22.3097 72.5948 21.6549Z" fill="white"/>
<path d="M25.9181 25.1329C26.5735 24.4781 26.5735 23.4145 25.9181 22.7577C25.2613 22.1029 24.1984 22.1029 23.5429 22.7577C22.8861 23.4145 22.8861 24.4781 23.5429 25.1329C24.1984 25.7897 25.2613 25.7897 25.9181 25.1329Z" fill="white"/>
<path d="M16.0334 34.8049L21.0606 29.7757C21.7168 29.1196 21.7161 28.0567 21.0606 27.4005C20.4045 26.7444 19.3409 26.7451 18.6848 27.4005L13.6575 32.4298C13.0021 33.0859 13.0021 34.1495 13.6582 34.8049C14.3137 35.4611 15.3772 35.4611 16.0334 34.8049Z" fill="white"/>
<path d="M78.1359 29.9339C78.792 30.5901 79.8556 30.5901 80.5117 29.9339C81.1679 29.2785 81.1679 28.2149 80.5117 27.5588L77.1609 24.2079C76.5048 23.5518 75.4412 23.5518 74.7851 24.2079C74.1296 24.8634 74.1296 25.927 74.7851 26.5831L78.1359 29.9339Z" fill="white"/>
<path d="M89.5079 28.0625L70.5071 9.05837C69.8654 8.41602 68.8287 8.40027 68.168 9.02359C66.6924 10.4139 59.7564 16.9457 59.6561 17.0434C59.6502 17.0493 59.6436 17.0546 59.6377 17.0605C57.9947 18.7034 56.3774 19.4357 54.3933 19.4357C50.3371 19.4357 47.2297 20.5813 44.6491 23.0254C42.5331 21.0215 40.1349 19.9855 36.788 19.6397L28.3909 11.242C27.7348 10.5858 26.6712 10.5858 26.0151 11.242L4.4921 32.7656C3.85303 33.404 3.83204 34.4354 4.4547 35.1001C4.46783 35.1139 4.47898 35.1276 4.4921 35.1408C4.4921 35.1408 18.4978 49.1248 18.5175 49.1439L17.9244 49.737C15.6279 52.0334 15.6266 55.7524 17.925 58.0508C19.0129 59.1373 20.5075 59.783 22.1426 59.7666C22.1249 61.38 22.7482 62.874 23.8636 63.9894C24.9968 65.1225 26.5111 65.7236 28.0812 65.7071C28.0642 67.3193 28.6868 68.8126 29.8022 69.928C30.8901 71.0146 32.3841 71.6602 34.0198 71.6438C34.0021 73.2572 34.6254 74.7512 35.7409 75.8666C38.0327 78.1585 41.7615 78.1585 44.054 75.8666L44.6484 75.2722L45.2429 75.8666C47.5348 78.1585 51.2635 78.1585 53.556 75.8666C54.6688 74.7538 55.2935 73.2625 55.2777 71.6471C56.8819 71.6635 58.3766 71.0461 59.4953 69.9274C60.6567 68.766 61.2288 67.2353 61.213 65.7098C62.8416 65.7268 64.3297 65.093 65.4333 63.9894C66.5506 62.8727 67.1727 61.376 67.1543 59.7666C68.7152 59.7823 70.2328 59.1892 71.3725 58.0501C73.6696 55.753 73.6696 52.0348 71.3725 49.737L70.7801 49.1445C82.4913 37.4464 67.6766 52.2729 89.5079 30.4376C90.164 29.7815 90.164 28.7186 89.5079 28.0625ZM8.05553 33.9525L27.2033 14.8054L33.6563 21.2584L14.5125 40.4049L8.05553 33.9525ZM20.2995 55.6749C19.3153 54.6908 19.3153 53.097 20.2995 52.1122L26.2388 46.1729C27.2217 45.1907 28.8194 45.1913 29.8016 46.1729C30.7877 47.1597 30.7877 48.7508 29.8016 49.737L23.8643 55.6743C22.8814 56.6559 21.2818 56.6559 20.2995 55.6749ZM26.2388 61.6142C25.254 60.6287 25.2526 59.0356 26.2388 58.0501L32.1768 52.1122C33.1629 51.1267 34.7547 51.126 35.7409 52.1122C36.7231 53.0944 36.727 54.6888 35.7409 55.6743C35.7402 55.6749 35.7402 55.6749 35.7402 55.6756L29.8016 61.6142C28.8194 62.5964 27.221 62.5964 26.2388 61.6142ZM32.1768 67.5515C31.1926 66.568 31.1926 64.9736 32.1768 63.9894L38.116 58.0501C39.0983 57.0679 40.6959 57.0679 41.6795 58.0514C42.6492 59.0192 42.6781 60.6136 41.6788 61.6136C41.6788 61.6136 41.6788 61.6136 41.6782 61.6142L35.7415 67.5509C34.7586 68.5331 33.159 68.5331 32.1768 67.5515ZM38.116 73.4915C37.1312 72.5059 37.1299 70.9129 38.116 69.9274L44.054 63.9894C45.0388 63.0046 46.6319 63.0032 47.6174 63.9894C48.6088 64.9808 48.5944 66.5759 47.6174 67.5522L41.6788 73.4915C40.6959 74.473 39.0983 74.473 38.116 73.4915ZM51.1802 73.4915C50.1986 74.4737 48.6003 74.4737 47.6181 73.4915L47.0236 72.897L49.9933 69.9274C50.194 69.7266 50.3751 69.512 50.5431 69.2896L51.1795 69.9267C51.1802 69.9267 51.1802 69.9267 51.1809 69.9274L51.1815 69.928C52.1664 70.9129 52.1664 72.5053 51.1802 73.4915ZM68.9974 55.6743C68.0145 56.6559 66.4155 56.6559 65.4333 55.6743L57.7133 47.9549C57.0571 47.2988 55.9935 47.2988 55.3374 47.9549C54.6819 48.6104 54.6819 49.674 55.3374 50.3301L63.0581 58.0508C64.0429 59.035 64.0436 60.6281 63.0574 61.6142C62.0713 62.6004 60.4775 62.5964 59.4953 61.6142L51.7753 53.8923C51.1198 53.2368 50.0562 53.2368 49.4001 53.8923C48.744 54.5484 48.744 55.612 49.3995 56.2681L57.1195 63.9894C58.1017 64.9716 58.1017 66.57 57.1195 67.5515C56.6444 68.0272 56.0113 68.2897 55.3374 68.2897C53.7411 68.2897 53.2267 67.0325 51.713 65.7091C51.6979 64.162 51.089 62.71 49.9939 61.6149C48.8798 60.4995 47.3878 59.8768 45.7757 59.8925C45.7921 58.2778 45.1668 56.7858 44.054 55.6743C42.8926 54.5129 41.3619 53.9415 39.8364 53.9572C39.8699 50.6444 37.187 47.9818 33.8984 48.016C33.9148 46.3842 33.2771 44.898 32.1768 43.7977C29.8849 41.5052 26.1555 41.5052 23.8636 43.7977L20.8927 46.7687L16.8903 42.7781L36.6594 23.0057C39.1074 23.2852 40.7556 23.9892 42.2667 25.394L37.5209 30.1391C34.9036 32.7584 34.9036 37.0206 37.5216 39.6411C40.1415 42.2591 44.4044 42.2598 47.0236 39.6405L51.7753 34.8895C54.846 37.9608 66.7586 49.8741 68.9967 52.1128C69.9789 53.0944 69.9789 54.6927 68.9974 55.6743ZM68.4042 46.7687L54.1505 32.5143L55.3381 31.3267C55.9942 30.6706 55.9942 29.607 55.3381 28.9509C54.6819 28.2954 53.619 28.2954 52.9622 28.9509L44.6478 37.266C43.3388 38.5749 41.2064 38.5749 39.8968 37.266C38.5878 35.9557 38.5878 33.8239 39.8961 32.5143C41.6191 30.792 45.0152 27.3965 46.7362 25.6761C48.7282 23.6841 51.0903 22.7951 54.3933 22.7951C56.7691 22.7951 58.8201 22.0812 60.7419 20.5695L77.4673 37.7292C66.5342 48.634 68.6923 46.4813 68.4042 46.7687ZM79.8431 35.3534L63.2208 18.2993L69.2847 12.5864L85.9451 29.25L79.8431 35.3534Z" fill="white"/>
</g>
<defs>
<filter id="filter0_d" x="0" y="0" width="94" height="94" filterUnits="userSpaceOnUse" color-interpolation-filters="sRGB">
<feFlood flood-opacity="0" result="BackgroundImageFix"/>
<feColorMatrix in="SourceAlpha" type="matrix" values="0 0 0 0 0 0 0 0 0 0 0 0 0 0 0 0 0 0 127 0" result="hardAlpha"/>
<feOffset dy="4"/>
<feGaussianBlur stdDeviation="2"/>
<feColorMatrix type="matrix" values="0 0 0 0 0 0 0 0 0 0 0 0 0 0 0 0 0 0 0.25 0"/>
<feBlend mode="normal" in2="BackgroundImageFix" result="effect1_dropShadow"/>
<feBlend mode="normal" in="SourceGraphic" in2="effect1_dropShadow" result="shape"/>
</filter>
<clipPath id="clip0">
<rect width="86" height="86" fill="white" transform="translate(4)"/>
</clipPath>
</defs>
</svg>
