<svg width="68" height="68" viewBox="0 0 68 68" fill="none" xmlns="http://www.w3.org/2000/svg">
<path d="M22.832 20.6044C22.9672 20.6033 23.1003 20.5713 23.2213 20.511C23.3381 20.4602 23.4438 20.3869 23.5322 20.2952C23.6206 20.2034 23.6899 20.0951 23.7363 19.9764C23.7826 19.8577 23.8049 19.731 23.8021 19.6036C23.7992 19.4763 23.7711 19.3507 23.7195 19.2342C23.127 17.9282 22.8128 16.5132 22.7967 15.0792C22.7806 13.6452 23.063 12.2235 23.6261 10.9045L23.7195 10.6865L23.8129 10.453C24.4763 8.88946 24.8103 7.20599 24.7942 5.50764C24.7782 3.80929 24.4123 2.13251 23.7195 0.581826C23.6139 0.34467 23.4186 0.159064 23.1763 0.0656727C22.9341 -0.0277183 22.6647 -0.0212874 22.4272 0.0835858C22.3083 0.133925 22.201 0.207966 22.1117 0.301204C22.0224 0.394441 21.953 0.504925 21.9078 0.625872C21.8626 0.746819 21.8426 0.875707 21.8489 1.00466C21.8552 1.13361 21.8878 1.25989 21.9446 1.37585C22.5305 2.68132 22.8399 4.09397 22.8533 5.52484C22.8667 6.95571 22.5838 8.37382 22.0224 9.69004L21.929 9.92362L21.8356 10.1416C21.1715 11.7081 20.8384 13.395 20.8572 15.0963C20.876 16.7977 21.2462 18.4768 21.9446 20.0283C22.0204 20.2003 22.1447 20.3464 22.3023 20.4488C22.46 20.5511 22.6441 20.6052 22.832 20.6044Z" fill="white"/>
<path d="M32.5633 20.6046C32.7037 20.6053 32.8423 20.5734 32.9681 20.5112C33.2014 20.4058 33.3833 20.2122 33.4738 19.9727C33.5643 19.7333 33.556 19.4678 33.4508 19.2345C32.8645 17.9263 32.5549 16.5112 32.5415 15.0777C32.5281 13.6443 32.8112 12.2236 33.3729 10.9047L33.4663 10.6867L33.5598 10.4532C34.2243 8.88953 34.5578 7.20513 34.539 5.50619C34.5203 3.80726 34.1497 2.13066 33.4508 0.582044C33.4001 0.465172 33.3267 0.359495 33.2349 0.271107C33.1432 0.182719 33.0348 0.113346 32.9162 0.0670307C32.7975 0.0207149 32.6708 -0.00165413 32.5434 0.00122266C32.4161 0.00409945 32.2905 0.0321763 32.1741 0.0838034C31.9369 0.189424 31.7513 0.38476 31.6579 0.626993C31.5645 0.869226 31.571 1.13858 31.6758 1.37606C32.2679 2.67944 32.582 4.09188 32.5981 5.52335C32.6142 6.95481 32.3319 8.37391 31.7693 9.69025L31.6758 9.92383L31.5824 10.1418C30.9159 11.7072 30.5802 13.3936 30.5963 15.0949C30.6123 16.7963 30.9799 18.4759 31.6758 20.0285C31.7548 20.1982 31.8798 20.3422 32.0368 20.4441C32.1937 20.546 32.3762 20.6016 32.5633 20.6046Z" fill="white"/>
<path d="M42.31 20.6046C42.4501 20.6032 42.5882 20.5713 42.7148 20.5112C42.9481 20.4058 43.13 20.2122 43.2205 19.9727C43.311 19.7333 43.3027 19.4678 43.1975 19.2345C42.6123 17.9264 42.3021 16.5122 42.286 15.0793C42.2699 13.6464 42.5484 12.2256 43.104 10.9047L43.213 10.6867L43.3064 10.4532C43.971 8.88954 44.3044 7.20513 44.2857 5.5062C44.2669 3.80727 43.8964 2.13066 43.1975 0.58205C43.1453 0.465506 43.0707 0.360354 42.978 0.272634C42.8852 0.184913 42.7761 0.116333 42.6568 0.0707909C42.5375 0.0252489 42.4104 0.0036462 42.2828 0.00721608C42.1552 0.010786 42.0295 0.0394642 41.913 0.0916024C41.7964 0.143741 41.6913 0.218304 41.6035 0.311073C41.5158 0.403842 41.4472 0.512997 41.4017 0.632273C41.3562 0.75155 41.3346 0.878637 41.3381 1.00626C41.3417 1.13389 41.3704 1.25953 41.4225 1.37607C42.0073 2.68146 42.3173 4.0932 42.3334 5.5235C42.3495 6.95379 42.0712 8.37206 41.5159 9.69026L41.4225 9.92384L41.3135 10.1418C40.6559 11.7099 40.3263 13.3961 40.345 15.0964C40.3637 16.7968 40.7304 18.4753 41.4225 20.0285C41.4999 20.1993 41.6246 20.3444 41.7819 20.4465C41.9392 20.5486 42.1225 20.6035 42.31 20.6046Z" fill="white"/>
<path d="M41.0017 41.6392C36.1019 42.6979 31.0325 42.6979 26.1327 41.6392C25.8811 41.5882 25.6195 41.6379 25.404 41.7776C25.1886 41.9173 25.0366 42.1359 24.9806 42.3865C24.9292 42.6401 24.9784 42.9037 25.1179 43.1216C25.2573 43.3396 25.4761 43.4947 25.7279 43.5542C30.8962 44.6545 36.2383 44.6545 41.4066 43.5542C41.6584 43.4947 41.8771 43.3396 42.0166 43.1216C42.1561 42.9037 42.2053 42.6401 42.1539 42.3865C42.0979 42.1359 41.9458 41.9173 41.7304 41.7776C41.515 41.6379 41.2534 41.5882 41.0017 41.6392Z" fill="white"/>
<path d="M60.3861 27.2683L60.6975 24.5748C60.7111 24.4373 60.696 24.2985 60.6531 24.1671C60.6102 24.0358 60.5405 23.9148 60.4483 23.8119C60.3567 23.7137 60.2458 23.6354 60.1226 23.5818C59.9994 23.5283 59.8665 23.5006 59.7322 23.5005H7.40255C7.26821 23.5006 7.13532 23.5283 7.01212 23.5818C6.88892 23.6354 6.77805 23.7137 6.68636 23.8119C6.59421 23.9148 6.52448 24.0358 6.48159 24.1671C6.43871 24.2985 6.4236 24.4373 6.43724 24.5748L6.74863 27.2683C7.13048 30.677 8.57379 33.8795 10.8746 36.4233C11.0578 36.6021 11.3036 36.7021 11.5596 36.7021C11.8156 36.7021 12.0615 36.6021 12.2447 36.4233C12.337 36.3346 12.4105 36.2283 12.4606 36.1105C12.5108 35.9928 12.5367 35.8662 12.5367 35.7382C12.5367 35.6102 12.5108 35.4836 12.4606 35.3659C12.4105 35.2482 12.337 35.1418 12.2447 35.0531C10.2205 32.8112 8.95152 29.9901 8.61698 26.9881L8.43015 25.4311H58.58L58.3932 26.9881C58.3932 27.315 58.2998 27.6575 58.2375 27.9845H40.1455C40.0074 27.967 39.8672 27.9791 39.7341 28.02C39.601 28.0609 39.4781 28.1297 39.3737 28.2217C39.2692 28.3138 39.1856 28.427 39.1283 28.5539C39.071 28.6808 39.0413 28.8184 39.0413 28.9576C39.0413 29.0968 39.071 29.2345 39.1283 29.3614C39.1856 29.4883 39.2692 29.6015 39.3737 29.6935C39.4781 29.7856 39.601 29.8544 39.7341 29.8953C39.8672 29.9362 40.0074 29.9482 40.1455 29.9307H57.8015C57.4938 30.8393 57.0974 31.7154 56.6182 32.5465H40.1455C40.0074 32.5289 39.8672 32.541 39.7341 32.5819C39.601 32.6228 39.4781 32.6916 39.3737 32.7836C39.2692 32.8757 39.1856 32.9889 39.1283 33.1158C39.071 33.2427 39.0413 33.3803 39.0413 33.5196C39.0413 33.6588 39.071 33.7964 39.1283 33.9233C39.1856 34.0502 39.2692 34.1634 39.3737 34.2555C39.4781 34.3475 39.601 34.4163 39.7341 34.4572C39.8672 34.4981 40.0074 34.5102 40.1455 34.4927H55.2793C55.1339 34.6795 54.9782 34.8663 54.8121 35.0531C54.7085 35.1953 54.645 35.3626 54.6283 35.5377C54.6115 35.7128 54.6422 35.8892 54.717 36.0483C54.7918 36.2075 54.908 36.3436 55.0535 36.4425C55.199 36.5413 55.3684 36.5992 55.5439 36.6101C55.6783 36.61 55.8111 36.5823 55.9343 36.5288C56.0575 36.4752 56.1684 36.3969 56.2601 36.2987C56.9233 35.5512 57.5223 34.7491 58.0507 33.901C58.0507 33.901 58.0507 33.901 58.0507 33.8231C59.2945 31.833 60.0914 29.5966 60.3861 27.2683Z" fill="white"/>
<path d="M50.437 37.1704H40.1455C40.0074 37.1529 39.8671 37.165 39.734 37.2059C39.6009 37.2468 39.4781 37.3155 39.3736 37.4076C39.2692 37.4996 39.1855 37.6129 39.1282 37.7398C39.0709 37.8666 39.0413 38.0043 39.0413 38.1435C39.0413 38.2827 39.0709 38.4203 39.1282 38.5472C39.1855 38.6741 39.2692 38.7873 39.3736 38.8794C39.4781 38.9714 39.6009 39.0402 39.734 39.0811C39.8671 39.122 40.0074 39.1341 40.1455 39.1166H50.437C50.6739 39.0866 50.8917 38.9712 51.0496 38.792C51.2075 38.6129 51.2946 38.3823 51.2946 38.1435C51.2946 37.9047 51.2075 37.6741 51.0496 37.495C50.8917 37.3158 50.6739 37.2004 50.437 37.1704Z" fill="white"/>
<path d="M66.5051 25.8669C66.0633 25.1692 65.4245 24.6182 64.6695 24.2838C63.9144 23.9493 63.0771 23.8465 62.2636 23.9882C61.45 24.1299 60.6969 24.5098 60.0994 25.0798C59.5019 25.6498 59.0869 26.3843 58.9071 27.1903L57.0855 35.3021C56.7379 35.0898 56.3599 34.9323 55.9644 34.835C54.9542 34.6098 53.8959 34.7946 53.0217 35.3488L46.1711 39.6615C44.3285 40.0892 42.5491 40.7539 40.8774 41.6389C39.029 42.6886 37.4222 44.1155 36.1615 45.8269C34.9007 47.5383 34.0143 49.4959 33.5597 51.5724C33.1115 49.4955 32.2292 47.5368 30.9708 45.8248C29.7123 44.1129 28.1061 42.6864 26.2575 41.6389C24.5858 40.7539 22.8064 40.0892 20.9638 39.6615L14.0509 35.3644C13.1768 34.8102 12.1185 34.6254 11.1082 34.8505C10.7128 34.9478 10.3347 35.1054 9.98723 35.3176L8.16558 27.2058C7.86092 26.2018 7.1892 25.3494 6.28423 24.8184C5.37926 24.2875 4.30746 24.117 3.28239 24.3408C2.25732 24.5647 1.35421 25.1665 0.752983 26.0264C0.15176 26.8863 -0.103441 27.9412 0.0382182 28.9808L3.65039 45.0798C4.05348 46.932 5.1729 48.5496 6.76432 49.5795L19.5781 57.6912C20.1794 58.0755 20.6743 58.6049 21.0172 59.2308C21.36 59.8566 21.5398 60.5586 21.5399 61.2722V66.1455C21.5699 66.3824 21.6853 66.6002 21.8645 66.7581C22.0436 66.916 22.2742 67.0031 22.513 67.0031C22.7518 67.0031 22.9824 66.916 23.1615 66.7581C23.3407 66.6002 23.4561 66.3824 23.4861 66.1455V61.2722C23.4902 60.2294 23.2278 59.2029 22.7237 58.2901C22.2196 57.3772 21.4905 56.6083 20.6057 56.0564L7.80748 47.9446C6.63796 47.1913 5.8063 46.0136 5.4876 44.6594L1.87543 28.5604C1.77962 28.131 1.8132 27.6828 1.9719 27.2724C2.13061 26.8621 2.40734 26.508 2.76716 26.2548C3.12698 26.0016 3.55375 25.8606 3.99359 25.8498C4.43343 25.839 4.86662 25.9586 5.23848 26.1938C5.73444 26.5093 6.08669 27.0069 6.21937 27.5795L8.33685 37.0614C7.96623 37.9275 7.9196 38.898 8.20547 39.7956C8.49133 40.6932 9.09061 41.458 9.89381 41.9503L10.8747 42.5419C12.689 44.9793 14.832 47.1538 17.2427 49.0033C17.5721 49.2164 17.9559 49.3299 18.3481 49.3303C18.4982 49.3464 18.6496 49.3464 18.7997 49.3303C19.0673 49.2707 19.3206 49.1588 19.545 49.0012C19.7694 48.8436 19.9606 48.6433 20.1075 48.4117C20.2529 48.1828 20.3512 47.9272 20.3967 47.6599C20.4421 47.3926 20.4338 47.1188 20.3722 46.8548C20.2693 46.4507 20.0468 46.0871 19.7338 45.8116C19.7338 45.8116 19.656 45.8116 19.6248 45.7182C19.5759 45.6535 19.5182 45.5959 19.4536 45.5469L12.0268 41.0006L10.937 40.3466C10.6076 40.1371 10.3477 39.8349 10.1898 39.478C10.0319 39.1211 9.98323 38.7253 10.0498 38.3408C10.1164 37.9562 10.2953 37.6 10.564 37.3169C10.8327 37.0338 11.1792 36.8366 11.5598 36.75C11.8238 36.6875 12.0977 36.6788 12.3651 36.7243C12.6326 36.7697 12.8882 36.8685 13.1167 37.0147L20.1075 41.4209C20.1987 41.4782 20.2986 41.5202 20.4033 41.5455C22.1292 41.9235 23.7951 42.5364 25.3545 43.3671C26.9849 44.2965 28.3979 45.5635 29.4988 47.0834C30.5997 48.6032 31.3632 50.3407 31.738 52.1796L32.6255 56.1031V66.1922C32.6555 66.4291 32.7709 66.6469 32.9501 66.8048C33.1292 66.9627 33.3598 67.0498 33.5986 67.0498C33.8374 67.0498 34.068 66.9627 34.2471 66.8048C34.4263 66.6469 34.5417 66.4291 34.5717 66.1922V56.1031L35.4592 52.1796C35.834 50.3407 36.5975 48.6032 37.6984 47.0834C38.7993 45.5635 40.2123 44.2965 41.8427 43.3671C43.4021 42.5364 45.068 41.9235 46.7939 41.5455C46.8986 41.5202 46.9985 41.4782 47.0897 41.4209L54.0805 37.0147C54.309 36.8685 54.5646 36.7697 54.8321 36.7243C55.0996 36.6788 55.3734 36.6875 55.6374 36.75C55.8898 36.8071 56.1285 36.9135 56.3396 37.0631C56.5507 37.2127 56.7301 37.4027 56.8675 37.6219C57.1469 38.0609 57.242 38.5924 57.1322 39.1011C57.0161 39.6062 56.7093 40.0469 56.2758 40.3311L47.7281 45.5469L47.6035 45.6715C47.6035 45.6715 47.4945 45.6714 47.4634 45.8116C47.1048 46.1315 46.8706 46.5678 46.8022 47.0435C46.7339 47.5192 46.8357 48.0038 47.0897 48.4117C47.384 48.8749 47.8478 49.2046 48.382 49.3303H48.8335C49.2444 49.327 49.6452 49.2024 49.9856 48.9722C52.3826 47.1293 54.5149 44.9656 56.3225 42.5419L57.319 41.9347C58.1123 41.4379 58.6991 40.6707 58.971 39.775C59.2429 38.8793 59.1814 37.9154 58.7981 37.0614L60.9156 27.5795C61.0493 27.0056 61.4036 26.5074 61.9019 26.1927C62.4001 25.878 63.0023 25.7721 63.578 25.898C64.1513 26.0291 64.6495 26.3817 64.9637 26.8789C65.2786 27.379 65.3848 27.9828 65.2595 28.5604L61.5384 44.7061C61.3875 45.3797 61.1049 46.0167 60.7067 46.5806C60.3085 47.1444 59.8028 47.6238 59.2185 47.9913L46.4046 56.1031C45.5298 56.6644 44.8093 57.4357 44.309 58.3467C43.8086 59.2578 43.5442 60.2795 43.5398 61.3189V66.1922C43.5699 66.4291 43.6853 66.6469 43.8644 66.8048C44.0436 66.9627 44.2741 67.0498 44.5129 67.0498C44.7517 67.0498 44.9823 66.9627 45.1615 66.8048C45.3406 66.6469 45.456 66.4291 45.486 66.1922V61.3189C45.4862 60.6053 45.6659 59.9033 46.0088 59.2775C46.3516 58.6516 46.8465 58.1222 47.4478 57.7379L60.2616 49.6262C61.8531 48.5963 62.9725 46.9787 63.3756 45.1265L66.9877 28.9808C67.2367 27.9195 67.0636 26.803 66.5051 25.8669ZM18.3637 47.4152C17.8538 47.0433 17.3652 46.643 16.9002 46.2164L18.4571 47.1817C18.4571 47.1817 18.535 47.3063 18.3637 47.4308V47.4152ZM48.8024 47.4152C48.7779 47.4342 48.7477 47.4445 48.7168 47.4445C48.6858 47.4445 48.6556 47.4342 48.6311 47.4152C48.6092 47.3921 48.597 47.3615 48.597 47.3296C48.597 47.2978 48.6092 47.2671 48.6311 47.244L50.1881 46.2786C49.7472 46.6824 49.2846 47.0619 48.8024 47.4152Z" fill="white"/>
</svg>
