<svg width="60" height="27" viewBox="0 0 60 27" fill="none" xmlns="http://www.w3.org/2000/svg">
<path d="M15.7307 18.26C15.7307 19.748 15.5627 21.008 15.2267 22.04C14.8907 23.048 14.3987 23.864 13.7507 24.488C13.1027 25.112 12.2987 25.568 11.3387 25.856C10.4027 26.12 9.3227 26.252 8.0987 26.252C6.8747 26.252 5.7827 26.12 4.8227 25.856C3.8867 25.568 3.0947 25.112 2.4467 24.488C1.7987 23.864 1.2947 23.048 0.934702 22.04C0.598702 21.008 0.430702 19.748 0.430702 18.26V0.799998H5.3627V18.944C5.3627 20.984 6.2747 22.004 8.0987 22.004C9.0347 22.004 9.7187 21.752 10.1507 21.248C10.5827 20.72 10.7987 19.952 10.7987 18.944V0.799998H15.7307V18.26ZM33.6475 18.296C33.6475 17.6 33.5635 17.036 33.3955 16.604C33.2275 16.148 32.9995 15.788 32.7115 15.524C32.4235 15.236 32.0875 15.044 31.7035 14.948C31.3435 14.828 30.9595 14.768 30.5515 14.768H28.3915V21.896C28.6555 21.896 28.9195 21.908 29.1835 21.932C29.4235 21.956 29.6995 21.98 30.0115 22.004C30.3235 22.004 30.6475 22.004 30.9835 22.004C31.9915 22.004 32.6875 21.68 33.0715 21.032C33.4555 20.36 33.6475 19.448 33.6475 18.296ZM33.1075 7.64C33.1075 6.728 32.9035 6.02 32.4955 5.516C32.0875 5.012 31.5235 4.76 30.8035 4.76C30.5155 4.76 30.2275 4.772 29.9395 4.796C29.6515 4.796 29.3875 4.808 29.1475 4.832C28.8835 4.856 28.6315 4.88 28.3915 4.904V10.736H30.2995C31.3075 10.736 32.0275 10.496 32.4595 10.016C32.8915 9.536 33.1075 8.744 33.1075 7.64ZM38.6515 18.26C38.6515 19.94 38.4475 21.308 38.0395 22.364C37.6315 23.396 37.0675 24.212 36.3475 24.812C35.6275 25.388 34.7755 25.784 33.7915 26C32.8075 26.216 31.7395 26.324 30.5875 26.324C29.8195 26.324 29.0155 26.312 28.1755 26.288C27.3595 26.264 26.6035 26.228 25.9075 26.18C25.0915 26.132 24.2755 26.072 23.4595 26V0.799998C24.2515 0.727999 25.0435 0.667999 25.8355 0.619998C26.5075 0.571999 27.2155 0.536 27.9595 0.512C28.7275 0.487999 29.4115 0.475998 30.0115 0.475998C31.4755 0.475998 32.7115 0.607999 33.7195 0.872C34.7275 1.136 35.5435 1.544 36.1675 2.096C36.8155 2.648 37.2715 3.356 37.5355 4.22C37.8235 5.084 37.9675 6.116 37.9675 7.316C37.9675 8.18 37.8715 8.912 37.6795 9.512C37.4875 10.112 37.2355 10.616 36.9235 11.024C36.6355 11.408 36.2995 11.708 35.9155 11.924C35.5315 12.14 35.1475 12.308 34.7635 12.428C35.2435 12.476 35.7115 12.632 36.1675 12.896C36.6475 13.136 37.0675 13.496 37.4275 13.976C37.7875 14.432 38.0755 15.02 38.2915 15.74C38.5315 16.436 38.6515 17.276 38.6515 18.26ZM51.499 4.688V11.42H58.555V15.308H51.499V26H46.567V0.799998H59.455V4.688H51.499Z" fill="#1A1718"/>
</svg>
