<svg width="78" height="70" viewBox="0 0 78 70" fill="none" xmlns="http://www.w3.org/2000/svg">
<path d="M60.6326 0.113525C58.4862 0.113525 56.6409 1.42596 55.856 3.29034L49.7065 7.28752C49.001 7.74607 48.8008 8.68968 49.2594 9.39503C49.7179 10.1005 50.6616 10.3006 51.3669 9.84216L55.4529 7.18636V53.978L34.1249 40.1147V21.0496L39.872 17.314C40.5775 16.8554 40.7777 15.9118 40.3191 15.2065C39.8606 14.501 38.9167 14.3009 38.2116 14.7593L32.1499 18.6994H12.3398C10.0195 18.6994 8.0623 20.2798 7.48553 22.4205L0.971188 24.9538C0.385733 25.1816 0 25.7454 0 26.3737V34.7906C0 35.4189 0.385733 35.9827 0.971188 36.2105L7.48553 38.7438C8.06215 40.8845 10.0195 42.4649 12.3398 42.4649H14.0582L22.1604 65.0757C23.1917 67.9533 25.9381 69.8867 28.9949 69.8867C31.3542 69.8867 33.5735 68.7348 34.9315 66.8057C36.2897 64.8764 36.6253 62.3987 35.8294 60.1777L29.4824 42.4649H32.1499L55.856 57.874C56.6407 59.7383 58.4861 61.0508 60.6326 61.0508C63.4887 61.0508 65.8122 58.7272 65.8122 55.8711V5.29319C65.8122 2.43706 63.4887 0.113525 60.6326 0.113525ZM3.04686 27.4159L7.31247 25.757V35.4075L3.04686 33.7486V27.4159ZM10.3593 37.4376V23.7267C10.3593 22.6347 11.2478 21.7463 12.3398 21.7463H31.078V39.4181H12.3398C11.2478 39.4181 10.3593 38.5296 10.3593 37.4376ZM32.9611 61.2054C33.4299 62.5136 33.2401 63.9156 32.4401 65.0519C31.6403 66.1881 30.3845 66.8398 28.9949 66.8398C27.221 66.8398 25.6272 65.7178 25.0288 64.0478L22.5355 57.0899H24.5272C25.3686 57.0899 26.0507 56.4078 26.0507 55.5664C26.0507 54.725 25.3686 54.043 24.5272 54.043H21.4437L19.9152 49.7774H21.8867C22.7281 49.7774 23.4101 49.0954 23.4101 48.254C23.4101 47.4126 22.7281 46.7305 21.8867 46.7305H18.8234L17.2949 42.4649H26.2458L32.9611 61.2054ZM62.7654 55.8711C62.7654 57.0472 61.8087 58.0039 60.6326 58.0039C59.4565 58.0039 58.4998 57.0472 58.4998 55.8711V5.29319C58.4998 4.1171 59.4565 3.16039 60.6326 3.16039C61.8087 3.16039 62.7654 4.1171 62.7654 5.29319V55.8711Z" fill="white"/>
<path d="M76.4763 34.467C77.3177 34.467 77.9998 33.785 77.9998 32.9436C77.9998 32.1022 77.3177 31.4202 76.4763 31.4202H70.3826C69.5412 31.4202 68.8591 32.1022 68.8591 32.9436C68.8591 33.785 69.5412 34.467 70.3826 34.467H76.4763Z" fill="white"/>
<path d="M71.2004 24.1038C71.4587 24.1038 71.7208 24.038 71.9607 23.8995L77.238 20.8526C77.9667 20.432 78.2164 19.5003 77.7956 18.7716C77.375 18.0428 76.4431 17.7931 75.7146 18.214L70.4373 21.2609C69.7086 21.6815 69.4589 22.6133 69.8797 23.3419C70.1618 23.8306 70.6739 24.1038 71.2004 24.1038Z" fill="white"/>
<path d="M77.238 45.0343L71.9607 41.9874C71.2321 41.567 70.3003 41.8165 69.8797 42.545C69.4589 43.2737 69.7086 44.2054 70.4373 44.626L75.7146 47.6729C75.9546 47.8114 76.2164 47.8772 76.475 47.8772C77.0015 47.8772 77.5135 47.6041 77.7956 47.1153C78.2164 46.3867 77.9667 45.4549 77.238 45.0343Z" fill="white"/>
<path d="M44.7888 13.8245C45.1895 13.8245 45.5825 13.6615 45.8659 13.3781C46.1492 13.0947 46.3123 12.7017 46.3123 12.301C46.3123 11.9004 46.1492 11.5073 45.8659 11.224C45.5825 10.9406 45.1895 10.7776 44.7888 10.7776C44.3882 10.7776 43.9951 10.9406 43.7117 11.224C43.4284 11.5073 43.2654 11.9004 43.2654 12.301C43.2654 12.7017 43.4284 13.0947 43.7117 13.3781C43.9951 13.6615 44.3882 13.8245 44.7888 13.8245Z" fill="white"/>
</svg>
