<svg width="559" height="329" viewBox="0 0 559 329" fill="none" xmlns="http://www.w3.org/2000/svg">
<path d="M534.578 85.4901L534.416 85.3817V85.5443L534.578 85.4901V85.4901ZM532.951 84.0263L533.33 83.8636V83.6468L532.951 84.0263ZM539.679 79.7973L539.624 79.0383L539.516 78.6046L539.679 79.7973H539.679ZM515.968 74.213L515.588 74.3757L512.495 75.2973L511.41 75.6769L510.162 76.0564L509.728 76.219V76.3817L509.891 79.201L510.054 81.8034L510.216 84.1889L510.488 84.3516L511.464 84.0805L515.859 82.7793L515.968 83.0504L523.781 80.0684L523.835 80.1769L524.541 79.9058L527.036 78.9299L529.424 81.8034L529.749 81.5323L529.912 80.719L529.858 82.0202H530.4L530.563 82.6708L531.052 83.5925L533.602 80.5022L535.718 81.207L536.206 80.1226L539.679 78.2793L538.214 75.4058L538.593 77.2492L536.803 78.6046L534.795 78.7672L530.78 74.4841L528.99 71.7733L530.78 69.8757L528.935 69.7672L528.176 67.9781L528.122 67.8696L525.029 71.2311L518.192 73.5082L515.968 74.213Z" fill="#F9F9F9" stroke="black" stroke-width="0.970631" stroke-linejoin="round"/>
<path d="M312.228 41.2492L313.313 45.0986L315.592 58.9781L316.677 64.5083L317.003 69.3878L318.25 72.3155L318.522 74.8095L318.739 75.6227L318.685 75.7854L316.514 79.3637L317.925 81.7492L320.638 100.834L320.746 103.328L323.459 103.165L334.148 102.569L360.843 100.346L363.502 100.075V99.8035L362.742 95.6288L359.432 93.9481L356.828 91.2372L352.704 88.7432L351.402 88.6348L349.395 87.1167L349.937 79.6348L348.038 77.8998L348.689 74.8637L352.162 71.7191L351.565 65.2131L352.813 63.8034L357.045 59.3577L361.874 53.1769L363.719 51.8757L366.974 50.3034L370.393 47.7552L368.114 48.189L366.757 47.1588L361.549 47.8637L360.735 46.8878L356.068 48.7854L352.325 47.2131L351.294 45.9661L348.31 46.1829L346.302 45.1528L346.953 44.3938L344.403 43.5805H342.124L338.489 45.1528L337.783 44.0685L332.032 43.2552L330.079 38.3757L329.862 36.9118L327.366 36.207L327.583 40.3817L320.963 40.8697L312.77 41.195L312.228 41.2492L312.228 41.2492Z" fill="#F9F9F9" stroke="black" stroke-width="0.970631" stroke-linejoin="round"/>
<path d="M260.303 40.7612L242.343 39.5685L229.267 38.3215L216.245 36.8034L208.16 35.7191L195.247 33.713L188.79 32.6287L174.357 29.8636L172.838 29.5383L170.505 40.5986L171.536 42.6046L172.35 45.695L171.862 46.1287L172.892 48.948L174.303 50.1408L178.318 56.8637L178.698 58.0022L180.326 57.8938L178.427 66.7854L177.667 67.0022L176.636 69.9842L182.008 70.3637L182.442 72.8577L185.48 80.2854L186.023 80.7191L188.139 85.0565L188.682 84.6227L193.185 84.5685L198.882 85.1649L200.293 83.3215L201.975 86.3577L202.3 86.5203L202.355 86.195L203.114 80.8817L221.671 83.1589L236.483 84.5685L244.296 85.2191L258.241 86.0323L258.946 86.0866H259.109L259.163 85.3276L259.326 81.5866L259.543 76.6528L259.597 75.4058L259.706 73.2372L260.574 56.2131L261.279 42.9841L261.334 40.8155L260.303 40.7612L260.303 40.7612Z" fill="#F9F9F9" stroke="black" stroke-width="0.970631" stroke-linejoin="round"/>
<path d="M311.089 41.2492L294.703 41.5745L283.254 41.5202L273.433 41.3034L261.931 40.8696L261.334 40.8154L261.279 42.9841L260.574 56.213L259.706 73.2371L259.597 75.4058L261.713 75.5143L285.641 76.1649L307.725 76.0022L316.894 75.7311L318.739 75.6227L318.522 74.8094L318.251 72.3155L317.003 69.3878L316.677 64.5082L315.592 58.9781L313.313 45.0986L312.228 41.2492H311.089L311.089 41.2492Z" fill="#F9F9F9" stroke="black" stroke-width="0.970631" stroke-linejoin="round"/>
<path d="M232.74 287.665L231.058 286.418L229.593 286.797L229.918 289.834L227.911 292.328L229.647 296.285L230.135 300.352L232.143 301.653L233.391 299.647L235.615 298.02L238.328 297.316L241.312 294.767L238.382 292.273L238.328 290.755L232.74 287.665H232.74ZM222.865 283.273L222.051 282.569L221.291 283.599L222.865 283.273ZM218.795 280.942L219.012 278.936L217.981 278.773L218.795 280.942ZM222.213 277.635L221.291 278.069L221.942 280.129L223.353 280.237L223.787 282.026L225.306 282.677L228.67 281.105L225.523 278.502L222.213 277.635ZM215.268 275.412L214.78 276.876L217.113 276.822L219.283 277.364L218.144 275.574L215.268 275.412V275.412ZM208.432 271.129L207.184 269.936L204.797 271.779L206.316 274.599L207.401 273.46L210.494 274.111L210.222 272.809L208.432 271.129ZM184.124 268.743L184.45 267.984L185.372 267.496L184.124 268.743ZM192.751 263.809L188.953 265.219L188.573 266.249L190.093 267.334L192.209 267.876L193.728 264.894L192.751 263.809ZM166.436 253.834V253.779H166.327L166.436 253.834ZM137.679 246.731V246.84H137.733L137.679 246.731ZM122.595 244.237L122.65 244.291L122.595 244.237ZM121.51 242.611H121.402V242.665L121.51 242.611ZM121.89 242.611H121.836H121.89ZM121.836 242.556V242.611V242.556ZM104.798 228.568L104.744 228.406V228.46L104.798 228.568V228.568ZM67.6316 216.695L67.4688 216.858L67.5773 216.912L67.6316 216.695L67.6316 216.695ZM29.6508 189.37H29.5965H29.6508ZM6.21118 179.177L6.37396 179.123V179.014L6.21118 179.177V179.177Z" fill="#F9F9F9" stroke="black" stroke-width="0.970631" stroke-linejoin="round"/>
<path d="M172.784 29.5383L167.955 28.5624L166.382 28.1829L165.676 28.0203L159.382 56.3215L159.654 58.6528L159.437 61.0926L159.545 61.6347V61.689L159.599 62.7191L161.444 64.7251L158.785 71.3938L153.143 78.7673L152.98 80.1227L154.445 83.5926L149.29 104.954L149.073 106.093L150.592 106.418L165.948 109.454L172.079 110.593L173.652 110.864L175.171 111.135L182.985 112.382L196.983 114.496L198.557 114.713L198.774 112.924L199.262 109.4L201.107 95.3035L202.084 88.3095L202.301 86.5203L201.975 86.3577L200.293 83.3215L198.882 85.1649L193.185 84.5685L188.682 84.6228L188.139 85.0565L186.023 80.7191L185.481 80.2854L182.442 72.8577L182.008 70.3637L176.636 69.9842L177.667 67.0023L178.427 66.7854L180.326 57.8938L178.698 58.0023L178.318 56.8637L174.303 50.1408L172.893 48.948L171.862 46.1287L172.35 45.695L171.536 42.6046L170.505 40.5986L172.838 29.5384H172.784V29.5383Z" fill="#F9F9F9" stroke="black" stroke-width="0.970631" stroke-linejoin="round"/>
<path d="M107.403 43.0383L107.457 42.1166L107.349 42.1708L107.403 43.0383H107.403ZM118.96 38.1046L119.285 37.5624L118.906 37.5082L118.96 38.1046H118.96ZM117.929 37.1286L118.254 36.0443L117.929 35.9359V37.1286ZM121.89 35.5564L121.835 34.472L120.913 35.8817L121.89 35.5564H121.89ZM121.998 33.2792L122.161 32.1949L122.053 31.9238L121.998 33.2792H121.998ZM122.161 27.966L122.107 27.3696L121.89 27.3154L122.161 27.966H122.161ZM123.897 24.3877L123.409 24.3335L122.432 25.8515L123.897 24.3877ZM122.541 22.9238L122.812 22.7069L122.866 22.5443L122.541 22.9238H122.541ZM122.27 23.0865L122.107 22.0021L121.618 22.9238L122.27 23.0865ZM121.998 21.5684L121.51 21.3515L121.89 21.8937L121.998 21.5684ZM123.626 22.4901V21.7853L123.463 22.0563L123.626 22.4901ZM124.114 21.7853L123.897 21.6226H123.843L124.114 21.7853H124.114ZM121.022 20.5925L120.75 20.3756L120.642 20.3214L121.022 20.5925V20.5925ZM123.029 20.3756L121.564 20.7551L121.944 20.8636L123.029 20.3756ZM121.835 20.2672L121.564 19.9419L121.51 19.9961L121.835 20.2672H121.835ZM122.975 19.6166H122.758L123.029 19.725L122.975 19.6166H122.975ZM112.34 47.4299L114.294 49.5443L113.968 53.6106L114.348 54.6407L117.278 56.213L125.525 56.972L125.851 57.9479L129.757 58.0022L133.447 58.4901L139.469 57.8395L142.454 58.3275L143.268 57.948L158.514 61.4179L159.545 61.6347L159.436 61.0925L159.653 58.6528L159.382 56.3215L165.676 28.0202L164.808 27.8576L152.112 24.8756L141.043 22.0564L128.509 18.5865L124.765 17.6648L125.634 22.3817L124.82 23.8997L123.355 23.1407L124.765 29.701L123.246 31.8696L122.541 33.8757V35.9359L119.34 38.1588L117.983 37.2913L116.681 37.9419L119.068 34.8516L118.471 36.966L119.828 35.5022L120.913 35.719L120.588 33.0082L121.293 33.1166L122.758 29.8636L122.27 29.3756L120.371 31.8154L119.123 31.8696L120.479 30.3516L121.998 29.972L121.456 27.207L119.936 26.8275L119.177 25.5262L118.254 26.0142L113.263 23.8455L108.868 20.4299L107.674 23.7371L107.566 25.1467L108.488 27.6407L107.891 35.719L107.457 36.966L109.899 37.1829L107.457 38.9178L108.759 39.5684L107.728 43.0383L107.24 40.3275L106.318 43.472L107.566 44.9901L108.922 44.8817L110.55 45.8576L111.364 47.4299H112.34V47.4299Z" fill="#F9F9F9" stroke="black" stroke-width="0.970631" stroke-linejoin="round"/>
<path d="M208.052 173.105L189.767 170.828L179.946 169.418L165.947 167.195L164.537 166.979V167.087L162.149 177.605L160.901 177.551L159.002 175.87L156.615 177.876L156.561 186.497L155.693 188.34V188.503V188.557L155.584 189.912L157.483 195.009L159.165 197.286L156.127 199.075L154.933 201.298L152.98 206.069L152.003 206.286L151.949 210.244L153.631 211.491L152.763 213.876L150.809 213.985L149.67 216.099L153.577 218.539L160.956 222.659L183.744 234.75L203.06 237.135H203.277L204.796 221.141L205.176 217.183L209.246 175.219L209.463 173.268L208.052 173.105H208.052Z" fill="#F9F9F9" stroke="black" stroke-width="0.970631" stroke-linejoin="round"/>
<path d="M115.162 203.195L115.379 204.388V204.605L115.162 203.195ZM107.186 198.532L107.566 199.346L107.783 199.291L107.186 198.532V198.532ZM116.681 198.37L116.844 199.779L117.82 200.484L116.681 198.37ZM110.116 190.671L109.519 190.508L110.007 190.725L110.116 190.671V190.671ZM104.093 189.044L102.628 189.912L103.008 190.291L104.093 189.044ZM101.272 188.014L101.163 188.448L101.652 188.557L101.272 188.014ZM106.046 189.099L108.434 190.454L108.868 190.075L106.046 189.099ZM87.5444 141.334L87.4901 141.388L87.5444 141.334ZM93.35 141.605L93.2957 141.442V141.659L93.35 141.605V141.605ZM124.657 100.454L122.541 99.9119L99.3184 93.5143L90.6913 90.9119V91.1287L90.203 96.4962L87.9242 102.84L84.1261 107.556L84.0176 109.942L85.8624 113.249L86.7848 117.587L85.4825 121.111L85.6996 124.635L85.0485 126.099L87.2731 130.924L88.6838 132.767L88.5753 138.026L91.9393 141.225L93.8926 137.972L96.0087 139.653L96.8225 138.894L93.8926 139.436L93.8383 142.201L94.4351 145.671L92.8074 144.099L91.885 141.984L91.6137 144.912L92.3733 150.713L95.4118 154.454L93.4042 157.057L93.7298 160.364L95.9001 163.725L99.6982 174.135L100.892 174.785L100.512 181.996L101.109 182.864L109.248 185.791L111.744 188.448L112.612 190.183L114.999 191.538L117.603 192.026L118.689 195.008L120.859 196.038L124.114 199.888L127.153 204.93L126.936 209.593L128.618 211.816L150.809 213.984L152.763 213.876L153.631 211.49L151.949 210.243L152.003 206.285L152.98 206.069L154.933 201.298L156.127 199.075L159.165 197.285L157.483 195.008L155.584 189.912L155.693 188.557V188.502L154.282 186.605L149.941 180.804L141.531 168.984L129.812 152.177L123.192 143.014L116.79 133.797L124.169 102.514L124.657 100.454L124.657 100.454Z" fill="#F9F9F9" stroke="black" stroke-width="0.970631" stroke-linejoin="round"/>
<path d="M273.704 142.743L273.921 132.117L271.317 132.008L258.078 131.52L256.776 131.466L255.691 131.412L239.576 130.382L228.833 129.514L215.431 128.213L214.129 128.051L213.966 129.46L211.036 157.707L210.005 167.575L209.571 171.858L209.463 173.267L211.145 173.43L238.491 175.816L250.536 176.575L262.527 177.117L264.264 177.171L265.349 177.225L267.628 177.28L268.713 177.334L272.131 177.442H272.999V176.358L273.596 147.677L273.65 144.478V143.448L273.704 142.743L273.704 142.743Z" fill="#F9F9F9" stroke="black" stroke-width="0.970631" stroke-linejoin="round"/>
<path d="M164.808 165.243L170.451 130.165L173.327 112.599L173.652 110.864L172.079 110.593L165.948 109.454L150.592 106.418L149.073 106.093L147.554 105.767L139.904 104.087L126.176 100.834L124.657 100.454L124.169 102.514L116.79 133.798L123.192 143.014L129.812 152.177L141.531 168.984L149.941 180.804L154.282 186.605L155.693 188.502V188.34L156.561 186.496L156.615 177.876L159.003 175.87L160.902 177.551L162.149 177.605L164.537 167.087V166.978L164.808 165.243L164.808 165.243Z" fill="#F9F9F9" stroke="black" stroke-width="0.970631" stroke-linejoin="round"/>
<path d="M264.101 181.4L264.155 179.99L264.209 178.581L264.264 177.171L262.527 177.117L250.536 176.575L238.491 175.816L211.145 173.43L209.463 173.268L209.246 175.219L205.176 217.183L204.797 221.141L203.277 237.135L203.494 237.189L210.982 237.894L211.687 234.099L213.044 233.015L228.236 234.37H228.345L226.988 231.713L233.879 232.201L251.079 233.177L261.822 233.665L263.667 182.81L264.047 182.864L264.101 181.4L264.101 181.4Z" fill="#F9F9F9" stroke="black" stroke-width="0.970631" stroke-linejoin="round"/>
<path d="M90.6912 90.9119L99.3183 93.5143L122.541 99.9119L124.657 100.454L126.176 100.834L139.903 104.087L147.554 105.767L149.073 106.093L149.29 104.954L154.445 83.5926L152.98 80.1227L153.142 78.7673L158.785 71.3938L161.444 64.7251L159.599 62.7191L159.545 61.689V61.6348L158.514 61.4179L143.267 57.948L142.454 58.3275L139.469 57.8396L133.447 58.4902L129.757 58.0022L125.851 57.948L125.525 56.9721L117.278 56.213L114.348 54.6407L113.968 53.6106L114.294 49.5444L112.34 47.4299L112.177 47.4841L111.798 47.7552L109.085 46.3456L107.457 46.8335L106.372 46.2913L105.232 50.954L104.473 52.2552L101.109 60.442L100.132 64.942L99.5353 64.9962L96.3883 72.4781L94.2722 75.6769L93.5126 76.2191L91.5593 80.0143L91.1795 84.0263L89.9858 87.6046L90.6912 90.8577V90.9119L90.6912 90.9119ZM110.55 46.3998L110.387 45.9119L110.333 46.2914L110.55 46.3998H110.55Z" fill="#F9F9F9" stroke="black" stroke-width="0.970631" stroke-linejoin="round"/>
<path d="M196.983 114.496L182.985 112.382L175.171 111.135L173.652 110.864L173.327 112.599L170.451 130.165L164.808 165.243L164.537 166.978L165.948 167.195L179.946 169.418L189.767 170.828L208.052 173.105L209.463 173.267L209.571 171.858L210.005 167.575L211.036 157.707L213.966 129.46L214.129 128.051L213.044 127.942L199.208 126.261L197.092 125.99L198.448 115.418L198.557 114.713L196.983 114.496Z" fill="#F9F9F9" stroke="black" stroke-width="0.970631" stroke-linejoin="round"/>
<path d="M257.915 107.34L258.349 98.8819L258.892 87.4963L258.946 86.0867L258.241 86.0325L244.297 85.2192L236.483 84.5686L221.671 83.159L203.114 80.8818L202.355 86.1951L202.301 86.5204L202.084 88.3096L201.107 95.3035L199.262 109.4L198.774 112.924L198.557 114.713L198.448 115.418L197.092 125.99L199.208 126.261L213.044 127.942L214.129 128.051L215.431 128.213L228.833 129.514L239.576 130.382L255.691 131.412L256.776 131.466L256.83 130.057L257.101 124.364L257.59 114.442L257.807 110.213L257.861 108.804L257.915 107.34H257.915Z" fill="#F9F9F9" stroke="black" stroke-width="0.970631" stroke-linejoin="round"/>
<path d="M385.965 183.243L380.105 184.111L382.492 180.316L381.461 178.201L360.789 180.207L343.318 181.617L340.768 181.78L341.093 183.298L343.209 194.249L343.263 196.689L343.86 211.436L343.915 213.876L344.077 213.93L344.891 214.798L348.147 214.689L348.472 219.46L348.581 220.816L350.263 220.653L355.417 220.274L375.873 218.376H375.981L375.927 217.183L376.47 216.804L375.493 214.96L377.555 206.286L376.741 205.31L379.834 201.894L379.617 198.966L381.895 195.171V195.117L381.787 195.008L383.74 193.219L383.198 191.051L384.717 188.665L384.391 186.442L386.019 183.298V183.243H385.965V183.243Z" fill="#F9F9F9" stroke="black" stroke-width="0.970631" stroke-linejoin="round"/>
<path d="M369.796 110.43L366.812 108.858L365.184 106.635L364.641 103.436L365.075 101.972L363.502 100.075L360.843 100.346L334.148 102.569L323.459 103.165L320.746 103.328L319.607 103.382L320.529 109.4L319.77 112.274L320.963 114.063V114.442L321.343 114.496L323.079 119.593L324.761 122.249L324.87 125.286L326.715 127.834L326.389 128.918L328.071 135.749V135.912L339.194 135.587L351.077 134.557L362.742 133.093L365.401 135.424L365.509 135.533L365.998 135.316L365.618 133.201L367.626 131.954L368.439 126.424L367.626 126.045L368.114 123.225L370.555 122.737L373.268 120.786L374.462 117.37L374.516 115.635L372.346 113.575L371.695 112.274L369.633 110.972L369.742 110.701L369.796 110.43L369.796 110.43Z" fill="#F9F9F9" stroke="black" stroke-width="0.970631" stroke-linejoin="round"/>
<path d="M340.388 174.677L339.031 151.743L336.59 150.334L336.373 149.249L334.419 147.514L336.318 145.183L335.559 143.828L334.148 143.882L332.846 142.96L332.303 142.526L330.459 142.635L310.437 143.394L301.268 143.611H283.037L275.712 143.502L273.65 143.448V144.478L273.596 147.677L272.999 176.358V177.442L275.332 177.496L287.92 177.659L317.382 177.225L338.38 176.249L340.442 176.087L340.388 174.677L340.388 174.677Z" fill="#F9F9F9" stroke="black" stroke-width="0.970631" stroke-linejoin="round"/>
<path d="M365.401 135.424L362.742 133.093L351.077 134.556L339.194 135.587L328.071 135.912L328.017 136.237L329.374 138.84L330.621 139.707L332.086 142.309L332.303 142.526L332.846 142.96L334.148 143.882L335.559 143.827L336.319 145.183L334.42 147.514L336.373 149.249L336.59 150.333L339.032 151.743L340.388 174.677L340.442 176.087L340.551 177.496L340.605 178.906L340.714 180.37L340.768 181.779L343.318 181.617L360.789 180.207L381.462 178.201L382.492 180.315L380.105 184.111L385.965 183.243H386.019V182.809L386.128 180.315L387.213 178.96L386.887 177.442L386.833 177.388L386.779 177.333L386.996 176.629L387.321 176.737L387.484 177.171L387.43 177.333V177.388V177.821L387.647 177.876L388.081 177.334V177.279L388.135 177.117L389.546 176.249L389.763 176.141L390.251 171.695L390.143 171.478L389.98 171.424L386.128 168.279L386.725 167.141L385.639 164.05L383.686 162.532L379.997 160.906L377.663 159.008L377.935 155.105L378.64 151.472L374.734 151.689L373.54 150.442L372.997 147.948L366.812 142.743L365.076 137.918L365.51 135.532L365.401 135.424V135.424Z" fill="#F9F9F9" stroke="black" stroke-width="0.970631" stroke-linejoin="round"/>
<path d="M319.933 114.334L318.251 112.653L312.336 110.918L310.437 110.864L307.562 111.677L304.143 109.508L293.454 109.617L277.882 109.454L259.489 108.858L257.861 108.803L257.807 110.213L257.59 114.442L257.101 124.364L256.83 130.057L256.776 131.466L258.078 131.52L271.317 132.008L273.921 132.117L273.704 142.743L273.65 143.448L275.712 143.502L283.037 143.611H301.268L310.437 143.394L330.459 142.635L332.303 142.526L332.086 142.31L330.621 139.707L329.373 138.84L328.017 136.237L328.071 135.912V135.749L326.389 128.918L326.715 127.834L324.87 125.285L324.761 122.249L323.079 119.593L321.343 114.496L320.963 114.442L319.933 114.334L319.933 114.334Z" fill="#F9F9F9" stroke="black" stroke-width="0.970631" stroke-linejoin="round"/>
<path d="M340.713 180.37L340.605 178.906L340.551 177.497L340.442 176.087L338.38 176.25L317.382 177.225L287.92 177.659L275.332 177.497L272.999 177.442H272.131L268.713 177.334L267.628 177.28L265.349 177.225L264.264 177.171L264.209 178.581L264.155 179.99L264.101 181.4L264.046 182.864H264.372L277.502 183.189L291.393 183.352L291.555 201.894L292.532 205.147L294.702 207.207L297.035 207.316L297.524 206.34L300.725 209.268L304.903 209.701L305.662 210.569L307.182 209.864L310.98 211.653V212.683L312.391 212.629L313.855 211.382L316.568 213.117L319.119 214.039L320.855 211.653L326.389 214.256L328.451 212.575L330.133 211.924L331.489 212.25L336.59 210.786L339.303 211.924L341.744 213.496L343.86 213.876H343.915L343.86 211.436L343.263 196.689L343.209 194.249L341.093 183.298L340.768 181.78L340.713 180.37L340.713 180.37Z" fill="#F9F9F9" stroke="black" stroke-width="0.970631" stroke-linejoin="round"/>
<path d="M316.894 75.7311L307.724 76.0021L285.641 76.1648L261.713 75.5142L259.597 75.4058L259.543 76.6528L259.326 81.5865L259.163 85.3275L259.109 86.0865H258.946L258.892 87.4961L258.349 98.8817L257.915 107.34L257.861 108.803L259.489 108.858L277.882 109.454L293.454 109.617L304.143 109.508L307.561 111.677L310.437 110.864L312.336 110.918L318.25 112.653L319.932 114.334L320.963 114.442V114.062L319.77 112.273L320.529 109.4L319.607 103.382L320.746 103.327L320.638 100.834L317.925 81.7492L316.514 79.3636L318.684 75.7853L318.739 75.6227L316.894 75.7311L316.894 75.7311Z" fill="#F9F9F9" stroke="black" stroke-width="0.970631" stroke-linejoin="round"/>
<path d="M385.151 262.129L384.446 262.292L384.12 262.617L385.151 262.129ZM387.43 262.129L387.05 261.966L386.941 262.129H387.43ZM388.732 261.695H388.352L388.135 261.966L388.732 261.695ZM388.081 261.316L387.972 261.153L387.918 261.316H388.081ZM392.422 258.442L392.259 258.551H392.53L392.422 258.442ZM400.018 255.243L400.343 254.81L399.963 255.298L400.018 255.243V255.243ZM401.103 253.834L400.994 253.888V253.942L401.103 253.834V253.834ZM373.214 258.605L374.028 257.575L371.803 256.978L370.827 257.792L373.214 258.605ZM395.731 253.888L395.514 253.671L395.46 253.78L395.731 253.888ZM396.328 252.912L395.786 252.75L395.948 253.292L396.328 252.912ZM400.777 251.99V251.828V251.882V251.99V251.99ZM401.862 251.286L401.808 251.231L401.862 251.34V251.286V251.286ZM401.428 251.177L401.32 251.123L401.266 251.286L401.428 251.177L401.428 251.177ZM397.63 251.015L398.119 250.852V250.689L397.63 251.015ZM397.902 250.743L398.173 250.472L398.119 250.418L397.902 250.743L397.902 250.743ZM396.003 248.737L395.894 248.846H395.948L396.003 248.737H396.003ZM375.981 218.376H375.873L355.417 220.274L350.263 220.653L348.581 220.816L348.635 222.117L349.72 232.581L351.511 235.075L351.565 236.539L353.301 239.575L354.712 244.021L354.224 246.515L353.844 252.695L353.03 254.701H353.139L353.301 256.111L352.379 257.412L359.107 256.653L364.37 258.117L368.114 258.605L370.013 257.25L368.982 255.894L372.454 254.81L372.346 256.003L374.137 255.569L375.601 257.846L376.849 257.412L380.105 259.635L378.097 260.34L382.709 261.695H384.446L385.476 260.448L387.701 259.256L389.275 261.533L390.36 259.472L390.034 256.219L392.964 257.358L393.29 258.334L396.762 258.768L398.498 260.177L398.281 261.316L400.723 259.039L399.801 257.846L395.731 256.816L394.212 255.948L394.158 254.322L395.84 254.539L397.142 251.882L395.46 249.551L394.538 251.774L392.422 251.394L393.887 249.009L392.91 248.737L390.523 250.418L387.104 250.635L386.128 249.876L387.701 247.111L389.546 247.057L392.693 248.087L394.972 248.304L393.724 246.731L391.336 242.069L391.987 239.466L373.268 241.527L373.974 240.822L373.214 238.87L374.354 237.189L375.005 232.96L379.128 225.912L377.121 223.472L377.229 221.683L375.981 218.755V218.376H375.981Z" fill="#F9F9F9" stroke="black" stroke-width="0.970631" stroke-linejoin="round"/>
<path d="M320.855 299.918L318.25 290.105V291.948L320.855 299.918ZM320.258 282.677L318.413 286.147L318.196 287.286L320.258 282.677ZM321.723 280.129L323.459 277.852L322.211 278.611L321.723 280.129ZM327.854 274.599L323.785 276.713L324.924 276.496L327.854 274.599ZM328.397 273.84L329.536 272.918L329.102 273.027L328.397 273.84ZM264.046 182.864L263.667 182.81L261.822 233.665L251.079 233.177L233.879 232.201L226.988 231.713L228.344 234.37L228.399 234.424L234.259 240.28L237.623 244.237L242.072 247.545L245.219 253.292L246.413 259.31L248.963 260.99L250.97 263.213L253.846 264.243L258.024 266.9L259.923 267.605L262.527 265.002L263.341 262.237L264.698 259.581L268.93 257.9L270.557 258.713L275.278 259.093L279.564 261.749L282.494 262.292L281.68 263.81L283.362 264.894L284.936 266.792L285.261 268.798L286.292 270.153L288.68 275.9L291.067 277.906L292.912 280.942L295.245 283.328L296.276 283.653L297.144 289.834L299.694 291.243L299.803 293.195L300.454 293.033L304.903 298.454L307.128 298.942L309.949 300.623H314.29L317.437 302.358L321.18 301.545L319.498 299.972L317.979 295.418L317.382 291.46L316.514 290.159L316.894 287.502L315.755 287.394L314.235 284.9L315.972 286.743L317.979 286.039L319.064 283.165L316.894 280.237L320.15 280.617L321.669 278.286L321.452 277.472L322.808 275.683L322.483 277.255L324.002 276.063L323.405 273.948L325.358 274.978L327.854 273.569L325.413 271.021L326.932 271.617L329.753 271.78L333.443 270.966L337.566 268.201L340.062 266.141L340.442 264.623L341.961 263.051L341.147 260.448L341.31 258.822L344.023 257.629L343.806 260.502H345.434L343.643 262.021L350.86 258.225L352.053 258.171L352.813 254.701H353.03L353.844 252.695L354.224 246.514L354.712 244.02L353.301 239.575L351.565 236.539L351.511 235.075L349.72 232.581L348.635 222.117L348.581 220.816L348.472 219.46L348.147 214.689L344.891 214.798L344.077 213.93L343.915 213.876H343.86L341.744 213.496L339.303 211.924L336.59 210.785L331.489 212.249L330.133 211.924L328.451 212.575L326.389 214.255L320.855 211.653L319.119 214.039L316.568 213.117L313.855 211.382L312.391 212.629L310.98 212.683V211.653L307.182 209.864L305.663 210.569L304.903 209.701L300.725 209.267L297.524 206.34L297.035 207.316L294.702 207.207L292.532 205.147L291.555 201.894L291.393 183.352L277.502 183.189L264.372 182.864H264.046L264.046 182.864Z" fill="#F9F9F9" stroke="black" stroke-width="0.970631" stroke-linejoin="round"/>
<path d="M523.781 80.0684L515.968 83.0503L515.859 82.7792L511.464 84.0804L510.488 84.3515L510.596 84.8937L512.658 92.8635L513.309 93.6768L511.898 95.4117L512.875 96.3334L516.022 93.2973L517.704 90.966L518.029 91.6166L525.951 88.0925L526.114 87.9298L526.06 86.6286L525.734 85.4901L524.052 80.7732L523.835 80.1768L523.781 80.0684H523.781Z" fill="#F9F9F9" stroke="black" stroke-width="0.970631" stroke-linejoin="round"/>
<path d="M516.456 42.4419L515.751 43.3094L514.937 43.1467L514.503 46.725V46.7792L515.805 51.6588L515.696 52.6347L513.363 55.725L513.96 58.5443V62.0684L513.526 65.3214L515.968 74.213L518.192 73.5082L525.029 71.2311L528.122 67.8696V67.0022L528.284 65.5925L527.905 65.7552L527.85 65.4299L524.432 61.2552L524.323 60.8756L516.456 42.4419H516.456Z" fill="#F9F9F9" stroke="black" stroke-width="0.970631" stroke-linejoin="round"/>
<path d="M529.098 84.948L529.044 83.8095L528.881 84.2432L529.098 84.948H529.098ZM530.183 84.0805L529.478 82.7251L529.424 84.1348L530.183 84.0805V84.0805ZM529.858 82.3998L530.238 83.3757L530.726 84.2432L531.052 83.5926L530.563 82.6709L530.4 82.0203H529.858V82.3998ZM523.835 80.1769L524.052 80.7733L525.734 85.4902L526.06 86.6287L526.114 87.9299L526.223 87.7673L528.827 85.7071L528.339 82.0203L529.424 81.8034L527.036 78.9299L524.541 79.9058L523.835 80.1769H523.835Z" fill="#F9F9F9" stroke="black" stroke-width="0.970631" stroke-linejoin="round"/>
<path d="M515.968 74.2133L513.526 65.3217L513.96 62.0687V58.5446L513.363 55.7253L515.696 52.635L515.805 51.6591L514.503 46.7795L513.797 47.0506L510.813 48.135L507.883 49.2735L501.155 51.7133L500.775 51.8217L503.217 57.5145L504.031 62.882L506.907 67.382L509.619 76.2735L509.728 76.2193L510.162 76.0567L511.41 75.6771L512.495 75.2976L515.588 74.3759L515.968 74.2133V74.2133Z" fill="#F9F9F9" stroke="black" stroke-width="0.970631" stroke-linejoin="round"/>
<path d="M401.537 192.623L401.754 193.057L402.514 193.544L402.839 215.773L402.948 227.972L405.715 244.671L405.932 244.617L408.374 245.105L409.025 240.279L410.11 242.99L411.955 244.671L415.481 242.611L415.102 242.285L415.21 242.34L412.768 236.755L436.208 232.96L437.782 232.689V232.635L436.317 229.87L436.208 225.912L435.014 223.743L435.611 219.514L436.588 218.43L432.573 211.273L425.302 189.153L425.248 189.044L423.62 189.316L414.939 190.725L410.598 191.267L401.483 192.514L401.537 192.623V192.623Z" fill="#F9F9F9" stroke="black" stroke-width="0.970631" stroke-linejoin="round"/>
<path d="M477.77 298.996H477.661L477.716 299.051L477.77 298.996H477.77ZM477.282 298.942V298.996H477.336L477.282 298.942ZM477.39 298.888V298.834V298.888ZM470.011 299.701V299.756V299.701ZM469.902 299.756V299.701V299.756ZM469.414 299.756H469.36V299.81L469.414 299.756ZM484.824 296.34H484.769L484.824 296.448V296.34ZM486.288 295.96V295.852L486.18 296.015L486.288 295.96V295.96ZM485.746 295.852L485.529 295.635L485.475 295.689L485.746 295.852L485.746 295.852ZM485.583 296.286L484.932 295.472L485.312 296.177L485.583 296.286ZM490.738 293.087V293.304L490.846 293.195L490.738 293.087ZM491.497 292.545L491.66 292.274L491.443 292.49L491.497 292.545V292.545ZM491.66 292.002H491.606V292.057L491.66 292.002ZM490.683 291.84L490.629 291.786L490.683 291.84ZM491.172 291.027L491.117 290.972V291.081L491.172 291.027V291.027ZM489.707 290.972L489.652 290.918L489.707 290.972ZM491.552 289.725L491.443 289.78L491.606 289.834L491.552 289.725V289.725ZM491.769 289.725L491.66 289.617L491.714 289.78L491.769 289.725L491.769 289.725ZM491.389 289.617L491.334 289.563V289.671L491.389 289.617V289.617ZM493.396 289.237V289.183L493.288 289.4L493.396 289.237V289.237ZM491.117 289.454H491.009L491.117 289.509V289.454ZM492.257 288.804H492.094L492.04 288.858L492.257 288.804H492.257ZM492.691 288.533H492.637H492.691ZM488.133 288.749V288.641L488.079 288.749H488.133ZM488.622 288.587H488.459L488.622 288.912V288.587ZM487.319 288.641V288.316L487.048 288.37L487.319 288.641ZM486.56 288.099L486.831 288.37V288.262L486.56 288.099ZM494.536 288.424L493.559 288.858L493.885 288.912L494.536 288.424V288.424ZM486.94 287.936H486.614V288.045L486.94 287.936ZM495.512 285.225L495.567 284.954L495.621 284.249L495.512 285.225H495.512ZM495.567 282.189L495.35 281.647L495.241 281.864L495.567 282.189ZM483.033 283.545L482.924 283.707L483.196 283.762L483.033 283.545V283.545ZM482.002 283.057L481.514 283.219L481.894 283.274L482.002 283.057V283.057ZM480.917 283.165V283.002L480.863 283.057L480.917 283.165V283.165ZM479.778 283.111L479.452 283.328L479.886 283.545L479.778 283.111ZM481.297 283.165L481.242 283.002L480.971 282.948L481.297 283.165V283.165ZM474.189 277.852L473.863 278.015L474.514 278.231L474.189 277.852ZM472.887 276.117L472.453 275.466L472.615 275.954L472.887 276.117ZM474.569 277.201L473.809 275.466L473.267 275.304L474.569 277.201ZM472.398 275.033L472.236 274.599L472.127 274.328L472.398 275.033ZM467.895 269.015L466.918 268.31L467.298 268.689L467.895 269.015ZM492.311 265.382L488.35 258.768H488.133L492.311 265.382ZM464.911 254.81L464.748 254.755L464.911 254.864V254.81V254.81ZM464.585 254.43L464.531 254.484L464.585 254.539V254.43V254.43ZM464.205 253.888V253.834L464.151 253.888H464.205ZM464.422 253.671L464.585 253.78V253.671H464.422ZM464.748 253.454L464.531 253.508H464.585L464.748 253.454H464.748ZM464.368 253.4L464.205 253.237L464.26 253.292L464.368 253.4V253.4ZM463.988 252.804H463.88L464.043 252.858L463.988 252.804H463.988ZM464.368 252.153H464.151L464.097 252.207L464.368 252.153H464.368ZM464.585 252.261L464.314 251.99L464.422 252.045L464.585 252.261V252.261ZM462.523 249.93L462.415 249.876V249.93H462.523ZM460.19 249.93L460.028 249.713L460.082 249.984L460.19 249.93V249.93ZM440.44 248.141L442.068 246.894L440.277 248.087L440.44 248.141V248.141ZM443.696 245.539L443.859 245.376L443.207 245.647L443.696 245.539ZM423.078 241.906L417.163 243.804L420.419 242.882L423.078 241.906ZM437.782 232.689L436.208 232.96L412.769 236.755L415.21 242.34L415.373 242.394L414.776 244.617L416.512 243.858L418.411 242.177L421.667 242.069L425.411 240.713L427.961 241.093L427.364 242.015L432.03 243.587L436.045 245.539L436.968 247.707L439.952 247.057L447.006 241.31L449.61 241.418L460.245 249.442L462.415 249.008L464.694 252.045L465.128 256.87L464.422 259.906L464.748 261.424L466.647 265.219L465.779 262.237L468.221 262.183L468.438 264.352L467.135 267.713L471.639 273.894L473.321 273.948L471.91 272.051L473.646 272.268L474.677 271.617L474.243 275.087L476.576 276.93L478.15 281.159L480.266 282.46L482.979 283.165L486.723 287.936L488.676 288.966L486.071 289.129L487.265 290.484L491.552 289.075L493.668 287.882L495.621 281.051L494.644 270.424L494.427 269.34L489.218 260.665L484.769 254.376L482.273 249.225L484.389 251.015L484.824 250.689L485.746 255.189L488.133 258.605L485.8 254.051L485.909 251.882L478.909 243.37L477.227 240.713L475.003 236.213L473.484 232.418L472.29 231.063L472.019 229.328L471.964 229.274L468.22 229.057L466.756 230.195L465.942 234.37L465.182 232.418L439.572 235.617L437.727 232.743L437.782 232.689V232.689Z" fill="#F9F9F9" stroke="black" stroke-width="0.970631" stroke-linejoin="round"/>
<path d="M472.832 221.249L472.778 219.623L472.398 221.032L472.832 221.249H472.832ZM473.429 218.755L473.212 217.508L473.049 218.267L473.429 218.755ZM448.036 184.599L447.331 184.761L445.269 185.195L437.673 186.767L436.968 186.93L436.208 187.038L431.976 187.852L430.836 188.069L426.224 188.936L425.248 189.044L425.302 189.153L432.573 211.273L436.588 218.43L435.611 219.514L435.014 223.743L436.208 225.912L436.317 229.87L437.781 232.635V232.689L437.727 232.743L439.572 235.617L465.182 232.418L465.942 234.37L466.755 230.195L468.22 229.057L471.964 229.273L471.639 223.418L472.344 222.171L471.964 219.84L472.724 217.617L473.863 216.37L473.049 215.611L474.948 213.279H474.894L471.639 210.243L467.189 203.9L464.748 202.761L454.276 193.978L451.726 190.725L446.788 188.665L446.517 187.581L448.036 184.599V184.599Z" fill="#CF8FE3" stroke="black" stroke-width="0.970631" stroke-linejoin="round"/>
<path d="M400.669 247.327L400.398 247.382V247.436L400.669 247.328V247.327ZM405.715 246.677H404.955L405.661 246.731L405.715 246.677H405.715ZM399.421 247.219L399.204 247.436L399.258 247.49L399.421 247.219L399.421 247.219ZM404.521 246.785H402.46L404.413 246.84L404.521 246.785ZM381.896 195.117V195.171L379.617 198.966L379.834 201.894L376.741 205.309L377.555 206.285L375.493 214.96L376.47 216.803L375.927 217.183L375.982 218.376V218.755L377.229 221.683L377.121 223.472L379.129 225.912L375.005 232.96L374.354 237.189L373.214 238.87L373.974 240.821L373.269 241.526L391.988 239.466L391.337 242.068L393.724 246.731L394.972 248.303V248.249L396.979 245.972L401.212 245.05L405.118 245.484L405.715 244.725V244.671L402.948 227.972L402.839 215.773L402.514 193.544L401.754 193.056L401.537 192.623H401.429L398.716 193.002L393.941 193.653L383.089 195.008L381.896 195.117L381.896 195.117Z" fill="#F9F9F9" stroke="black" stroke-width="0.970631" stroke-linejoin="round"/>
<path d="M448.036 184.599L446.517 187.58L446.788 188.665L451.726 190.725L454.276 193.978L464.748 202.761L467.19 203.9L471.639 210.243L474.894 213.279L475.437 210.785L474.569 208.4L476.902 210.135L478.204 209.105L475.979 207.261L478.692 207.099L482.924 203.52L482.436 202.599L485.041 200.593L484.769 199.617L486.668 198.424L486.777 195.659L489.761 190.129L491.769 187.58L491.986 187.472L479.886 179.827L475.383 180.695L469.251 180.478L466.213 178.906L448.199 184.599H448.036Z" fill="#F9F9F9" stroke="black" stroke-width="0.970631" stroke-linejoin="round"/>
<path d="M369.742 110.701L369.633 110.972L371.695 112.273L372.346 113.575L374.516 115.635L374.462 117.37L373.268 120.786L370.556 122.737L368.114 123.225L367.626 126.045L368.439 126.424L367.626 131.954L365.618 133.201L365.998 135.316L365.509 135.532L365.075 137.918L366.812 142.743L372.997 147.948L373.54 150.442L374.733 151.689L378.64 151.472L377.935 155.105L377.663 159.008L379.996 160.906L383.686 162.533L385.639 164.051L386.725 167.141L386.128 168.28L389.98 171.424L390.143 171.478L389.817 171.153L390.902 168.605L395.08 169.743L396.111 168.551L395.297 166.165L398.716 164.159L397.793 162.858L398.607 161.014V160.852L398.39 160.798L398.444 155.972L399.638 155.105L401.7 150.28L401.266 148.165L399.909 145.617L400.669 142.743L396.871 116.014L396.328 115.418L394.918 112.219L393.778 111.026L393.29 107.882V107.773L385.965 108.804L381.57 109.346L369.742 110.701Z" fill="#F9F9F9" stroke="black" stroke-width="0.970631" stroke-linejoin="round"/>
<path d="M419.442 111.84L411.141 113.303L409.242 113.683L402.514 114.767L401.103 115.906L398.987 116.882L398.173 116.828L397.196 116.34L396.871 116.014L400.669 142.743L399.909 145.617L401.266 148.165L401.7 150.279L399.638 155.105L398.444 155.972L398.39 160.797L398.607 160.852L398.824 160.797L399.638 159.279H401.646L404.087 158.466L407.126 159.605L407.451 158.358L409.187 157.057L411.792 157.436L413.203 154.671L417.055 154.996L417.001 153.424L420.419 148.924L419.876 146.864L422.264 146.809L425.194 144.478L424.488 141.822L424.597 141.713L424.488 140.791L421.233 121.599L419.768 113.412L419.605 112.544L419.442 111.84L419.442 111.84Z" fill="#F9F9F9" stroke="black" stroke-width="0.970631" stroke-linejoin="round"/>
<path d="M387.484 177.171L387.321 176.737L386.996 176.629L386.779 177.334L386.833 177.388L387.43 177.334L387.484 177.171H387.484ZM424.597 141.713L424.488 141.822L425.194 144.478L422.264 146.81L419.876 146.864L420.419 148.924L417.001 153.424L417.055 154.996L413.203 154.671L411.792 157.436L409.187 157.057L407.451 158.358L407.126 159.605L404.087 158.466L401.646 159.279H399.638L398.824 160.797L398.607 160.852V161.014L397.793 162.858L398.716 164.159L395.297 166.165L396.111 168.551L395.08 169.743L390.902 168.605L389.817 171.153L390.143 171.478L390.251 171.695L389.763 176.141L389.546 176.249L388.135 177.117L388.081 177.279L389.654 177.063L400.615 175.599L400.072 173.43L401.917 173.376L424 170.448L439.518 167.846L439.735 167.683L440.115 167.249L444.184 165.081L447.331 160.96L447.765 159.551L449.827 157.924L452.431 154.617L452.811 154.075L452.648 154.02H451.292L449.556 153.044L446.463 149.304L445.378 145.508V145.4L445.269 145.291L442.99 143.99L441.959 142.255L439.898 144.261L438.595 144.587L436.968 143.936L435.557 145.02L432.627 143.719L431.867 144.044L429.1 141.659L427.69 140.954L425.031 141.279L424.597 141.713Z" fill="#F9F9F9" stroke="black" stroke-width="0.970631" stroke-linejoin="round"/>
<path d="M497.628 185.575L497.032 186.171L497.14 186.28L497.628 185.575ZM498.062 182.43L497.791 182.864L497.9 183.298L498.062 182.43ZM501.318 177.388L500.504 177.93L500.07 178.581L501.318 177.388ZM508.317 173.972L507.992 173.755L507.286 173.701L508.317 173.972V173.972ZM506.852 173.647H506.364L505.55 174.081L506.852 173.647ZM508.534 174.243L510.108 170.34L509.023 171.966L508.534 174.243ZM510.867 169.093L511.573 168.063H511.193L510.867 169.093ZM515.425 164.864L514.231 158.846L515.262 161.99L515.425 164.864ZM508.806 151.147L508.697 151.201L508.534 151.255H508.589L511.573 156.298L513.906 158.629L508.806 151.147L508.806 151.147ZM507.829 151.472L507.395 151.581L507.503 151.635H508.426L508.317 151.31L508.154 151.364H507.992V151.472L507.883 151.527L507.829 151.472V151.472ZM457.64 163.834L457.369 164.647L457.423 166.978L456.826 166.924L455.415 169.798L453.842 169.96L450.912 172.834L449.61 172.346L447.928 174.84L443.479 178.852L441.308 179.394L439.029 181.508L438.921 182.918L436.913 184.002L436.968 186.388V186.93L437.673 186.767L445.269 185.195L447.331 184.761L448.036 184.599H448.199L466.213 178.906L469.251 180.478L475.382 180.695L479.886 179.828L491.986 187.472L492.203 187.31L497.791 185.033L497.845 182.051L499.853 178.418L502.023 176.358L506.527 173.376L507.124 172.292L508.317 172.834L508.86 169.255L508.209 170.502L505.93 171.261L503.76 171.316L506.418 169.364L505.604 168.496L506.527 166.545L501.426 165.731L501.209 165.46L505.55 164.647L506.961 165.352L508.751 165.189L510.216 164.105L511.301 161.99L512.278 161.719L512.115 158.737L510.867 157.545L509.619 158.683L509.891 161.557L508.968 158.033L508.263 157.87L502.891 160.093L505.279 157.761L505.387 156.84L507.883 156.243L508.589 154.4L510.271 155.376L508.48 152.719L507.232 151.635L485.529 157.816L471.693 161.34L457.694 163.942L457.64 163.834H457.64Z" fill="#F9F9F9" stroke="black" stroke-width="0.970631" stroke-linejoin="round"/>
<path d="M457.369 115.418L456.012 109.563L455.741 108.37L454.222 101.701L452.268 102.948L448.091 106.147L445.378 109.454L443.262 109.779L439.355 112.002L437.185 110.701L430.619 109.942L427.147 110.81L423.729 111.623L420.148 112.382L419.605 112.545L419.768 113.412L421.233 121.599L424.488 140.792L424.597 141.713L425.031 141.28L427.689 140.954L429.1 141.659L431.867 144.045L432.627 143.719L435.557 145.02L436.968 143.936L438.595 144.587L439.898 144.261L441.959 142.255L442.99 143.99L445.269 145.292L445.378 145.4L447.711 144.261L448.525 142.472L447.874 140.629L449.718 137.81L451.075 137.593L450.912 135.207L453.137 132.171L453.516 132.605L455.524 131.087L457.26 128.484L457.532 116.611L457.64 116.557L457.369 115.418V115.418Z" fill="#F9F9F9" stroke="black" stroke-width="0.970631" stroke-linejoin="round"/>
<path d="M439.518 167.846L424 170.448L401.917 173.376L400.072 173.43L400.615 175.599L389.655 177.063L388.081 177.28V177.334L387.647 177.876L387.43 177.822V177.388V177.334L386.833 177.388L386.887 177.442L387.213 178.96L386.128 180.316L386.019 182.81V183.244V183.298L384.392 186.442L384.717 188.665L383.198 191.051L383.74 193.22L381.787 195.009L381.896 195.117L383.089 195.009L393.941 193.653L398.716 193.003L401.429 192.623H401.537L401.483 192.515L410.598 191.268L414.939 190.726L423.62 189.316L425.248 189.045L426.225 188.936L430.837 188.069L431.976 187.852L436.208 187.039L436.968 186.93V186.388L436.914 184.003L438.921 182.918L439.03 181.509L441.308 179.394L443.479 178.852L447.928 174.84L449.61 172.346L450.912 172.834L453.842 169.96L455.416 169.798L456.826 166.924L457.423 166.979L457.369 164.647L457.64 163.834L456.772 163.997L453.679 164.864L449.99 165.623L440.712 167.521L439.735 167.683L439.518 167.846L439.518 167.846Z" fill="#F9F9F9" stroke="black" stroke-width="0.970631" stroke-linejoin="round"/>
<path d="M507.992 151.364H508.154L508.317 151.31L508.209 151.039L507.992 151.364V151.364ZM506.147 145.292V145.563L506.418 145.4L506.147 145.292ZM507.124 143.394L507.069 142.96L507.124 143.394ZM506.798 144.045L506.69 144.749L506.527 145.021L506.798 144.045ZM507.286 142.635L507.341 142.31L507.232 142.635H507.286H507.286ZM507.612 141.171L507.775 140.792L507.503 141.767L507.612 141.171ZM507.666 140.358L507.883 139.165L507.612 139.436L507.666 140.358ZM508.643 134.99L508.751 134.502L508.697 134.611L508.643 134.99H508.643ZM508.426 133.743L507.72 134.014L506.635 134.502L506.255 134.99L506.418 135.045L505.116 143.123L505.604 144.424L506.364 141.063L507.775 136.671L508.426 133.798V133.743ZM509.511 133.31L509.348 133.364L509.294 133.581L509.023 135.261L509.24 134.665L509.511 133.31V133.31ZM452.811 154.075L452.431 154.617L449.827 157.924L447.765 159.551L447.331 160.96L444.184 165.081L440.115 167.249L439.735 167.683L440.712 167.521L449.99 165.623L453.679 164.864L456.772 163.996L457.64 163.834L457.694 163.942L471.693 161.34L485.529 157.816L507.232 151.635L507.069 151.364L507.015 151.201L507.395 151.581L507.829 151.472L507.775 151.418L507.395 149.575L507.666 149.629L508.534 151.255L508.697 151.201L508.806 151.147L508.589 150.713L506.364 147.298L503.597 147.786L502.349 148.816L501.155 147.731L497.086 146.376L494.264 146.267L499.744 145.779L502.783 147.84L503.651 146.484L501.209 143.394L502.946 143.502L502.023 141.008L499.853 141.117L494.698 136.942H494.047L501.318 140.52L500.83 138.026L501.318 137.213L497.628 135.804L494.427 135.587L492.854 134.177L491.551 134.99L491.063 131.249L491.606 131.358L491.497 128.322L491.389 128.213L491.28 128.267L491.172 128.213L490.9 127.996L490.738 127.834L489.001 127.075L487.211 125.773L484.715 125.123L484.552 125.069V125.123L484.227 127.4L479.181 125.231L479.289 128.376L476.522 133.635L474.84 135.478L473.755 138.677L470.445 137.539L468.817 144.912L467.515 147.406L467.298 150.659L466.321 152.231L462.686 153.316L459.702 155.647L458.291 155.864L456.935 157.057L453.516 155.81L452.92 154.129L452.811 154.075L452.811 154.075Z" fill="#F9F9F9" stroke="black" stroke-width="0.970631" stroke-linejoin="round"/>
<path d="M394.538 75.2974L393.181 76.9781L392.367 79.4179L392.747 80.7733L394.538 75.2974ZM363.393 62.5564L364.207 61.4178L363.61 61.96L363.393 62.5564ZM364.641 60.7672L364.37 60.4419L363.773 60.8214L364.641 60.7672V60.7672ZM352.813 63.8034L351.565 65.213L352.162 71.719L348.689 74.8636L348.038 77.8998L349.937 79.6347L349.395 87.1167L351.402 88.6347L352.705 88.7432L356.828 91.2371L359.433 93.948L362.742 95.6287L363.502 99.8034V100.074L365.075 101.972L364.641 103.436L365.184 106.635L366.812 108.858L369.796 110.43L369.742 110.701L381.57 109.346L385.965 108.803L393.29 107.773L393.073 106.96V104.412L391.608 101.701L391.228 98.2853L391.933 94.4902L391.553 91.5624L392.856 87.9299L392.367 87.3335L392.476 83.9721L393.181 81.4239L392.367 80.5564L390.794 81.0986L389.926 83.3757L387.864 84.5685L388.515 81.695L390.36 79.2552L390.468 78.1709L390.523 78.1166L387.918 75.5142V71.8275L384.988 69.4419L380.973 69.1708L376.849 68.0865L367.951 65.3756L366.215 64.3997L366.052 64.5624L363.285 64.1829L362.363 64.725L362.742 60.7672L358.293 63.0443L352.867 63.9118L352.813 63.8034V63.8034ZM363.448 60.9299L363.339 60.5504L362.959 60.713L363.448 60.9299ZM361.494 60.5504L361.657 60.2251L361.549 60.1166L361.494 60.5504ZM365.455 59.6287L365.292 58.8696L365.13 59.7913L365.455 59.6287Z" fill="#F9F9F9" stroke="black" stroke-width="0.970631" stroke-linejoin="round"/>
<path d="M467.732 124.96L460.027 126.858L457.64 116.557L457.532 116.611L457.26 128.484L455.524 131.087L453.516 132.605L453.137 132.171L450.912 135.207L451.075 137.593L449.718 137.81L447.874 140.629L448.525 142.472L447.711 144.261L445.378 145.4V145.508L446.463 149.304L449.556 153.045L451.292 154.021H452.648L452.811 154.075L452.92 154.129L453.516 155.81L456.935 157.057L458.291 155.864L459.702 155.647L462.686 153.316L466.321 152.231L467.298 150.659L467.515 147.406L468.817 144.912L470.445 137.539L473.755 138.677L474.84 135.478L476.522 133.635L479.289 128.376L479.181 125.231L484.227 127.4L484.552 125.123V125.069L482.979 122.358L479.723 121.978L477.824 123.442V124.527L476.196 124.906L473.809 126.587L472.561 126.858L470.065 130.382L468.817 124.689L467.732 124.96V124.96Z" fill="#F9F9F9" stroke="black" stroke-width="0.970631" stroke-linejoin="round"/>
<path d="M499.636 116.014L499.853 116.828L504.356 129.677L509.511 128.159L509.457 128.05H509.565L509.728 128.105L509.837 128.05L509.728 127.834L508.426 124.364L502.078 118.346L502.349 114.171H501.047L500.07 114.93L499.636 116.014H499.636Z" fill="#F9F9F9" stroke="black" stroke-width="0.970631" stroke-linejoin="round"/>
<path d="M490.9 127.996L491.172 128.213L491.28 128.267L491.389 128.213L491.497 128.267L491.877 128.484L491.986 128.647V129.026L492.094 129.243L492.799 127.942L492.04 127.508L491.117 127.563L490.9 127.996V127.996Z" fill="#F9F9F9" stroke="black" stroke-width="0.970631" stroke-linejoin="round"/>
<path d="M509.565 133.093L509.945 130.165L509.619 132.334L509.402 133.255L509.348 133.364L509.511 133.31L509.565 133.093V133.093ZM509.836 128.051L509.728 128.105L509.836 128.43V129.081V128.051V128.051ZM468.817 124.689L470.065 130.382L472.561 126.858L473.809 126.587L476.196 124.906L477.824 124.526V123.442L479.723 121.978L482.979 122.358L484.552 125.069L484.715 125.123L487.211 125.773L489.001 127.075L490.737 127.834L490.9 127.996L491.117 127.563L492.04 127.508L492.799 127.942L492.094 129.243V129.298L491.063 132.442L494.427 134.611L497.791 134.774L500.016 135.804L499.093 133.201L496.218 132.225L495.512 130.002L497.303 132.388L498.768 132.605L497.466 131.304L496.435 127.454L496.706 125.231L495.566 122.792L496.76 121.816L497.628 118.671L497.303 123.334L498.225 124.906L499.093 123.063L499.582 126.099L498.659 128.322L501.318 129.298L499.039 130.057L500.233 132.28L502.186 132.93L503.271 131.033L503.163 133.689L505.007 133.635L506.201 134.99H506.255L506.635 134.502L507.72 134.014L508.426 133.743L508.371 133.635L509.782 129.46V129.298L509.511 128.213V128.159L504.356 129.677L499.853 116.828L499.636 116.014L498.713 116.285L494.861 117.478L473.646 123.388L469.794 124.418L468.817 124.689V124.689Z" fill="#F9F9F9" stroke="black" stroke-width="0.970631" stroke-linejoin="round"/>
<path d="M512.495 115.797L512.224 115.147V115.797H512.495ZM513.038 113.791L513.201 112.165L512.875 113.574L513.038 113.791ZM510.813 97.1466L505.116 95.737L504.139 95.4659L503.217 95.249L500.938 100.291L501.915 101.484L501.861 105.117L502.892 105.279L505.008 110.809L504.899 110.972L502.24 114.876L502.512 117.857L508.914 120.026L508.968 122.52L510.433 120.46L510.65 117.478L512.17 116.448L511.573 114.225L512.712 111.568V105.767L512.333 103.87L509.782 103.924L510.433 101.321L510.813 97.1466V97.1466Z" fill="#F9F9F9" stroke="black" stroke-width="0.970631" stroke-linejoin="round"/>
<path d="M510.65 101.538L509.836 102.677L509.619 103.002L510.65 101.538ZM518.138 98.8818L520.851 96.4963V96.3878L518.138 98.8818ZM511.03 100.563V98.7191L510.867 99.695L511.03 100.563ZM523.618 91.8878L522.967 91.7252L522.858 92.2131L523.618 91.8878ZM525.083 90.9119L525.029 91.4541L525.137 91.1288L525.083 90.9119H525.083ZM523.564 90.9661L519.928 94.3276L514.34 96.7131L512.875 97.9601L512.766 99.1529L511.247 100.4L511.464 102.026L513.797 101.105L517.216 98.3397L521.014 96.3336L526.765 90.9119L522.696 94.0023L521.393 94.5445L523.564 90.9661ZM525.246 88.689L525.463 88.3637L524.812 89.1228L525.246 88.689ZM464.259 86.683L463.391 86.5746L464.042 87.4421L464.259 86.683ZM482.273 70.0926L482.382 69.4962L481.948 70.0384L482.273 70.0927V70.0926ZM482.545 66.189L482.327 66.2975L482.056 66.8938L482.545 66.189ZM459.593 96.9842L459.973 98.6107L462.849 99.3156L479.343 94.8155L495.946 89.8276L498.985 92.1589L499.582 93.5144L503.108 95.0324L503.217 95.2493L504.139 95.4662L505.116 95.7372L510.813 97.1469L510.705 96.8758L511.193 99.0987L512.278 98.8276L512.875 96.3878V96.3336L511.898 95.4119L513.309 93.677L512.658 92.8637L510.596 84.8938L510.488 84.3517L510.216 84.189L510.053 81.8035L509.891 79.2011L509.728 76.3818V76.2191L509.619 76.2734L506.906 67.3818L504.031 62.8818L503.217 57.5143L500.775 51.8215L500.45 51.9842L489.11 55.7794L486.831 58.2191L484.281 63.0987L484.389 64.183L481.025 69.2794L483.087 69.9842L483.684 73.8336L481.297 76.9782L474.134 81.3155L472.778 80.7734L467.461 81.5324L462.523 84.5143L462.795 86.0866L464.531 87.6047L463.554 92.3758L459.648 96.93L459.593 96.9842V96.9842Z" fill="#F9F9F9" stroke="black" stroke-width="0.970631" stroke-linejoin="round"/>
<path d="M503.108 95.0325L499.582 93.5144L498.985 92.159L495.946 89.8276L479.343 94.8156L462.849 99.3156L459.973 98.6108L459.593 96.9843L458.671 97.6891L457.206 98.7192L454.547 101.43L454.222 101.701L455.741 108.37L456.012 109.563L457.369 115.418L457.64 116.557L460.027 126.858L467.732 124.96L468.817 124.689L469.794 124.418L473.646 123.388L494.861 117.478L498.714 116.285L499.636 116.014L500.07 114.93L501.047 114.171H502.349L502.512 113.683L504.628 111.298L504.845 110.918L505.007 110.81L502.891 105.279L501.86 105.117L501.915 101.484L500.938 100.292L503.217 95.2493L503.108 95.0325Z" fill="#F9F9F9" stroke="black" stroke-width="0.970631" stroke-linejoin="round"/>
<path d="M529.261 66.1348H529.207L529.315 66.1891L529.261 66.1348H529.261ZM533.276 54.5866L532.842 53.936V54.2613L533.276 54.5866ZM532.517 53.9902V53.4481L532.462 53.1228L532.517 53.9902ZM534.47 51.7131L534.361 51.6589L534.416 51.8216L534.47 51.7131L534.47 51.7131ZM539.896 49.0023L539.787 48.189L539.57 48.5686L539.896 49.0023ZM538.539 49.3276L538.593 48.7312L537.942 48.8396L538.539 49.3276ZM540.547 47.5384H540.33V47.6469L540.547 47.5384ZM537.834 48.3517L537.346 48.2432L537.291 48.7312L537.834 48.3517ZM540.601 46.671L541.089 47.0505L540.927 46.6167L540.601 46.671ZM539.136 46.7252L538.648 47.6469L539.299 47.3216L539.136 46.7252ZM536.803 46.7794L536.586 47.1047L536.749 47.5926L536.803 46.7794ZM540.004 44.9902L539.95 44.5565L539.787 44.8276L540.004 44.9902H540.004ZM539.733 45.2071L539.245 44.7734V45.1529L539.733 45.2071V45.2071ZM536.694 46.4541L536.586 45.8577L536.369 46.3457L536.694 46.4541ZM541.849 44.5565L541.035 45.7493L540.981 44.8818L541.849 44.5565ZM545.81 40.924L545.43 40.3818L545.213 40.4902L545.81 40.924ZM547.275 38.4842L546.949 38.3215L546.895 38.4842H547.275ZM547.98 34.2553H547.492L548.034 34.4179L547.98 34.2553H547.98ZM548.794 34.7974L548.631 33.8215L548.197 33.7673L548.794 34.7974ZM547.926 33.93L547.817 32.8999L547.438 33.6047L547.926 33.93ZM516.456 42.442L524.324 60.8758L524.432 61.2553L527.85 65.43V65.3758L528.393 65.2131L528.501 62.1228L529.37 61.0384L529.912 58.1649L529.424 57.677L530.346 54.8577L533.493 53.3938L535.555 50.8999L536.315 46.5625L539.624 46.3456L539.19 44.1227L543.314 42.5504L543.585 40.1107L544.562 40.3276L547.275 38.1047L548.468 35.2312L545.701 32.4661L542.771 31.8697L541.686 29.6468V28.3456L539.896 28.8878L537.888 28.183V25.9601L532.462 14.2492L528.501 12.189L524.106 15.8757L522.913 15.6588L521.882 13.7613L520.471 14.3034L518.464 24.2793L519.169 27.5324L519.766 34.1468L518.192 39.2432L519.277 40.0565L517.975 42.5504L516.565 42.3336L516.456 42.442V42.442Z" fill="#F9F9F9" stroke="black" stroke-width="0.970631" stroke-linejoin="round"/>
<path d="M402.459 77.195L402.188 76.7612L402.134 77.3034L402.459 77.195ZM403.327 76.219L402.676 75.3516L402.568 75.7311L403.327 76.219ZM403.87 72.3154L403.327 71.8275V71.9359L403.87 72.3154ZM402.514 114.767L409.242 113.683L411.141 113.303L419.442 111.84L419.605 112.544L420.148 112.382L423.729 111.623L427.147 110.809L430.619 109.942L430.565 109.779L432.356 106.255L432.193 103.328L434.2 98.2853L435.774 99.207L436.371 98.0685L436.208 93.7311L434.743 91.0203L432.573 85.2733L430.674 83.1588L429.697 82.8877L426.17 85.3275L426.55 85.8154L424.705 89.2853L422.915 88.96L422.372 85.3275L423.132 85.0564L424.705 81.4239L424.868 75.0263L422.426 69.6046L417.001 68.6829L416.458 67.8696L411.412 66.4058L409.133 69.2251L409.35 71.6648L407.614 73.8335L407.994 77.195L406.312 78.3877V74.1588L404.792 77.3576L403.002 80.1769L401.808 81.0986L402.405 84.0805L401.645 87.1709L402.08 91.0203L401.537 92.9179L405.444 100.4L405.932 103.273L405.444 108.587L402.839 114.55L402.514 114.767ZM414.125 65.9178L412.714 66.0263L413.582 66.6769L414.125 65.9178ZM405.878 67.3275H405.444L405.932 67.5443L405.878 67.3275H405.878ZM415.373 60.4419L414.83 59.5744L414.613 59.6287L415.373 60.4419V60.4419ZM366.215 64.3998L367.951 65.3757L376.849 68.0865L380.973 69.1709L384.988 69.4419L387.918 71.8275V75.5142L390.523 78.1166V78.0624L392.639 71.9359L395.189 70.1467L397.142 67.9781L397.468 69.9299L399.475 66.8395L404.304 64.9961L404.684 64.2371L409.567 64.8335L411.466 65.8094L412.389 63.4238L413.257 63.966L417.055 63.3696L416.132 61.8515L414.45 60.8756L414.776 57.3515L411.466 59.1949L408.428 58.8154L407.451 56.4841L407.777 55.725L403.653 57.6768L400.994 57.8395L396.22 60.7672L395.677 61.8515L392.747 61.1467L390.902 61.96L387.213 58.7612L379.02 56.2672L378.857 55.2913L373.594 60.3335L370.61 61.0925L366.378 64.2913L366.215 64.3997V64.3998ZM385.422 52.0925L379.074 55.2371L381.19 57.2973L382.004 55.2371L384.174 52.5805L385.422 52.0925ZM378.314 44.6648L373.974 47.6467L373.757 49.1106L377.175 46.6166L378.314 44.6648Z" fill="#F9F9F9" stroke="black" stroke-width="0.970631" stroke-linejoin="round"/>
<path d="M56.6169 303.279L56.3456 303.388L56.5627 303.442L56.6169 303.279H56.6169ZM58.6245 303.605V303.659V303.605ZM57.6478 302.683V302.846L57.7563 302.791L57.6478 302.683ZM57.1595 302.412V302.358V302.412ZM58.1904 302.954V302.846L58.1361 302.9L58.1904 302.954V302.954ZM58.0819 302.846V302.791H57.9734L58.0819 302.846ZM15.7604 267.225L15.7062 267.605L15.8147 268.689L15.7604 267.225H15.7604ZM15.4891 265.761L15.5434 266.249L15.5977 266.087L15.4891 265.761H15.4891ZM58.0819 302.195L58.1362 301.87L57.9191 301.978L58.0819 302.195H58.0819ZM64.2673 304.852L64.2131 304.798L64.3216 305.014L64.2673 304.852L64.2673 304.852ZM60.2522 302.954L59.6554 302.412V303.713L60.2522 302.954ZM61.6087 304.147L61.5544 303.767L60.632 303.713L61.6087 304.147H61.6087ZM64.8642 304.906L64.8099 305.014H64.9184L64.8641 304.906H64.8642ZM65.0812 304.96H64.9727L65.1897 305.014L65.0812 304.96ZM65.7323 305.177H65.678H65.6238H65.7323H65.7323ZM17.8222 268.418L18.0393 268.472L18.2021 268.418H17.8222ZM64.5386 304.418L64.1046 304.364L64.2673 304.526L64.5386 304.418ZM14.8923 264.189L14.1327 263.864L14.0784 264.026L14.8923 264.189H14.8923ZM65.8951 304.526L65.7866 304.472V304.526H65.8951ZM69.2048 305.177L67.0888 305.34L66.6004 305.557L69.2048 305.177ZM11.04 255.677H10.4431L10.5516 255.84L11.04 255.677ZM75.7701 307.671V307.454H75.6616L75.7701 307.671ZM78.5915 307.725L78.7 307.617L78.5915 307.508V307.725ZM80.7076 308.322L80.8161 308.267H80.7618L80.7076 308.322H80.7076ZM78.9713 307.346L78.9171 307.129H78.8085L78.9713 307.346H78.9713ZM82.6066 308.159L82.5524 308.213H82.6066V308.159ZM11.3655 252.912L10.5516 253.02L11.5825 253.942L11.3655 252.912ZM79.731 307.346L79.8395 307.02H79.7852L79.7309 307.346H79.731ZM88.9006 306.533L88.9549 306.424L88.8464 306.37L88.9006 306.532L88.9006 306.533ZM87.5442 306.045L85.6451 307.725L87.0016 307.617L88.5751 306.37L87.5442 306.045ZM90.9624 306.641L90.5826 306.533L90.8539 306.749L90.9624 306.641ZM91.722 306.695L91.1252 306.533L91.0167 306.587L91.722 306.695V306.695ZM89.6602 305.936H89.0634L90.0943 306.207L89.6602 305.936ZM92.1561 306.478L92.1018 306.37L91.8848 306.424L92.1561 306.478L92.1561 306.478ZM90.5284 305.828L90.3113 305.719V306.316L90.5284 305.828ZM97.4734 307.183L97.4191 307.129H97.3106L97.4734 307.183H97.4734ZM97.5819 307.129V307.075L97.4734 307.02L97.5819 307.129V307.129ZM96.6595 306.804L96.7681 307.02V306.966L96.6595 306.804ZM97.1479 306.804L96.6595 306.641L97.2564 307.075L97.1479 306.804ZM97.8532 306.261V306.316V306.261ZM104.31 307.075L104.201 306.858H104.147L104.31 307.075H104.31ZM162.692 303.442L162.583 303.334L162.638 303.442H162.692H162.692ZM96.9308 305.123V305.069L96.8766 305.123H96.9308ZM164.265 302.466L164.428 302.683H164.537L164.265 302.466ZM104.961 306.533L104.907 306.587V306.749L104.961 306.533V306.533ZM98.233 305.557L98.3415 305.123H98.2873L98.233 305.557H98.233ZM167.412 301.219L166.924 301.49L167.358 301.707L167.412 301.219H167.412ZM99.2097 305.286L99.1554 305.177L99.2097 305.286ZM95.1403 304.093L93.7839 304.364L92.5902 305.936L95.1403 304.093ZM104.853 306.153L104.527 306.424L104.853 306.37V306.153V306.153ZM167.412 300.948L167.304 300.731L167.25 300.84L167.412 300.948H167.412ZM99.6438 304.743L99.2639 304.689L99.6438 305.069V304.743V304.743ZM163.831 301.653L163.723 301.761L163.831 302.141V301.653ZM100.512 304.689L100.349 304.743L100.566 304.906L100.512 304.689L100.512 304.689ZM104.527 305.828H104.364L104.256 305.719L104.527 305.828ZM100.078 304.689L99.8065 304.526L99.915 304.689H100.078ZM103.713 305.286L103.225 305.448L102.899 306.316L103.713 305.286ZM162.638 301.49V301.87L162.855 301.599L162.638 301.49ZM97.3106 303.551L97.7447 303.442H97.6904L97.3106 303.551H97.3106ZM96.7681 303.225L96.6595 303.117V303.171L96.7681 303.225V303.225ZM162.638 301.111L162.529 301.057L162.475 301.219L162.638 301.111L162.638 301.111ZM103.116 304.364L103.008 304.31L102.899 304.472L103.116 304.364V304.364ZM162.095 301.219L162.149 300.948L162.041 300.894L162.095 301.219H162.095ZM161.661 300.948L161.498 301.165L161.769 301.219L161.661 300.948ZM105.395 303.605L105.287 303.496H105.232L105.395 303.605H105.395ZM161.498 299.972L161.932 300.135L162.095 299.918L161.498 299.972ZM162.149 299.593L161.987 299.701L162.258 299.864L162.149 299.593ZM160.901 299.918L160.793 299.701L160.684 299.81L160.901 299.918ZM166.327 297.912L165.622 299.918L166.327 299.484V297.912ZM102.031 302.087H101.977H102.031ZM161.552 298.671L161.064 299.159L161.173 299.701L161.552 298.671ZM111.038 303.008V302.792L110.984 302.9L111.038 303.008ZM160.956 298.129L162.529 300.514L166.056 302.737L165.242 300.84L161.878 297.966L160.956 298.129ZM108.868 302.141L108.813 301.978L108.705 302.033L108.868 302.141H108.868ZM162.8 297.207L162.583 298.02L162.963 297.749L162.8 297.207ZM163.94 297.207L163.886 297.749L164.374 297.912L163.94 297.207H163.94ZM110.604 301.436L110.333 301.382L110.061 301.49L110.604 301.436V301.436ZM116.193 301.87L115.975 302.249L116.084 301.924L116.193 301.87V301.87ZM117.006 301.924L116.518 301.978L116.789 302.304L117.006 301.924ZM84.1259 294.984L84.6685 295.255L84.5599 295.147L84.1259 294.984ZM105.666 300.352L105.721 300.298L105.666 300.352ZM105.829 300.298H105.883V300.243L105.829 300.298ZM161.932 296.123L162.204 297.153L162.746 296.828L161.932 296.123ZM107.294 299.701L107.348 299.647L107.294 299.701ZM159.599 296.557L159.87 299.051L160.413 298.508L159.599 296.557ZM159.87 295.743L161.118 297.478L160.956 296.34L159.87 295.743ZM156.018 296.177L155.693 297.207L156.127 296.502L156.018 296.177ZM112.611 298.834L112.557 298.779L112.611 298.834ZM117.766 298.942L117.658 298.78L117.766 298.996V298.942ZM156.127 295.364L158.297 298.942L157.971 296.502L156.127 295.364ZM120.804 297.261L120.642 297.424L120.913 297.533L120.804 297.261ZM120.099 297.37L120.153 297.207H119.936L120.099 297.37H120.099ZM119.557 297.37L118.146 298.292L116.41 300.569L117.278 301.49L121.293 298.508L119.557 297.37ZM153.794 293.846L153.414 293.629V293.954L153.794 293.846ZM119.231 296.719L119.285 296.936L119.665 297.153L119.231 296.719H119.231ZM154.824 292.816L153.739 293.358L154.77 293.683L154.824 292.816H154.824ZM154.119 292.816L154.011 292.707L153.956 292.816H154.119H154.119ZM157.429 291.948L156.995 291.785L156.886 292.111L157.429 291.948ZM155.096 292.328L154.716 292.273V292.382L155.096 292.328V292.328ZM156.289 291.894L158.514 295.147L157.917 292.165L156.289 291.894ZM120.479 295.418L119.177 296.394L119.774 297.045L121.51 295.743L120.479 295.418ZM105.721 293.358L105.666 293.304V293.358H105.721ZM105.124 293.087L105.07 292.816V292.924L105.124 293.087ZM121.781 293.792L121.673 293.846V293.9L121.781 293.792V293.792ZM121.239 293.683H121.184L121.076 293.846L121.239 293.683H121.239ZM122.541 293.249L122.378 293.141V293.195L122.541 293.249V293.249ZM122.975 293.195L122.812 293.087V293.141L122.975 293.195V293.195ZM122.269 293.032H122.052V293.087L122.269 293.032ZM133.067 291.948L133.121 291.785L133.013 291.894L133.067 291.948L133.067 291.948ZM136.377 290.213L137.028 289.4L136.811 289.563L136.377 290.213ZM129.757 290.105L129.974 289.942L130.028 289.725L129.757 290.105H129.757ZM129.757 289.508L129.54 289.671L129.92 289.563L129.757 289.508V289.508ZM120.859 289.508L120.804 289.291H120.75L120.859 289.508H120.859ZM129.54 289.454L129.323 289.671L129.215 289.888L129.54 289.454ZM135.508 288.804H135.563H135.617H135.509H135.508ZM135.78 288.804L135.671 288.749V288.804H135.78ZM135.129 288.749L135.183 288.804V288.749H135.129ZM130.679 289.075L130.897 288.858L130.625 289.075H130.68H130.679ZM131.331 288.587L130.028 290.701L131.71 288.749L131.331 288.587ZM129.649 288.858L129.486 288.641L129.432 288.749L129.649 288.858H129.649ZM133.772 288.37L133.664 288.316L133.718 288.37H133.772H133.772ZM135.183 288.478V288.099L135.074 288.261L135.183 288.478ZM95.3573 284.304L92.7529 284.195L94.5435 286.093L95.3573 284.304ZM132.416 288.153L132.524 288.532L132.796 288.099L132.416 288.153V288.153ZM130.245 288.099L130.083 289.291L130.354 288.532L130.245 288.099ZM83.1492 279.099L83.2035 278.882L83.1492 279.099ZM129.703 287.34L129.757 287.502L129.866 287.448L129.703 287.34L129.703 287.34ZM129.432 287.557L129.323 287.231L129.16 287.34L129.432 287.557ZM131.982 286.906V286.689L131.819 286.797L131.982 286.906ZM129.54 286.581V287.123L129.703 286.743L129.54 286.581ZM125.416 285.93V285.767V285.93ZM97.0936 279.207L97.2021 278.882L97.1478 278.936L97.0936 279.207L97.0936 279.207ZM97.2564 278.665L97.2021 278.611L97.1478 278.665H97.2563H97.2564ZM99.6438 277.364V277.309V277.364ZM99.6438 277.147L99.5895 277.038L99.6438 277.147ZM100.62 275.737H100.566H100.62ZM100.946 275.846L100.729 275.737V275.791L100.946 275.846V275.846ZM100.62 275.629V275.52L100.512 275.629H100.62ZM91.9391 273.081L91.8306 272.809L91.7763 272.647L91.9391 273.081H91.9391ZM92.7529 272.105H92.8072L92.8615 272.159L92.753 272.105H92.7529ZM91.288 271.834L90.8539 271.291L91.1795 271.725L91.288 271.834ZM90.4198 270.966H90.3113L90.4741 271.02L90.4198 270.966H90.4198ZM90.4198 270.315L90.5284 270.37L90.4198 270.315ZM104.798 274.599L104.201 274.653L104.527 274.816L104.798 274.599V274.599ZM89.823 269.34L89.3889 270.966L90.7454 271.183L92.5359 273.026L93.6211 272.538L89.823 269.34ZM99.3182 269.99V269.882V269.936V269.99V269.99ZM96.6053 264.243L96.4968 264.189L96.551 264.243H96.6053H96.6053ZM98.1788 264.785L98.3415 264.731H98.2873L98.1787 264.785H98.1788ZM99.2639 264.46H99.4267L99.915 264.243L99.2639 264.46ZM101.217 263.864L101.326 263.755L101.163 263.864H101.217H101.217ZM101.489 263.809L101.814 263.647L101.543 263.701L101.489 263.809L101.489 263.809ZM102.302 263.484L102.031 263.538V263.593L102.302 263.484V263.484ZM137.136 253.671L136.919 253.508L136.539 253.346L137.136 253.671ZM108.705 252.478L109.193 251.827L108.922 252.044L108.705 252.478ZM109.356 251.719L109.573 251.394L109.465 251.502L109.356 251.719ZM109.682 251.285L110.061 250.96L109.844 251.068L109.682 251.285ZM126.773 251.394L127.044 251.665H127.207L126.773 251.394ZM118.037 247.815L115.813 249.659L114.456 249.279L111.309 251.068L110.712 250.689L107.131 254.701L103.496 255.514L103.822 257.466L105.449 259.689L108.488 262.617L108 263.755L110.278 264.731L109.085 264.948L107.62 263.809L108.379 265.49L107.403 266.087L104.31 263.267L101.868 263.701L97.6904 265.273L99.5895 267.388L99.3182 268.689L100.566 270.207L104.69 271.834L107.674 270.315L108.162 271.454L107.348 274.87H104.853L101.923 276.171L101.76 275.249L100.241 275.846L99.5352 277.418L97.0394 279.315V282.081L98.016 282.514L97.2564 284.846L100.512 287.665L102.574 286.797L102.14 290.267L102.736 291.026L105.232 291.569L106.155 292.599L108.325 292.761L109.356 293.846L111.581 293.195L110.55 294.605L109.736 297.478L103.116 301.761L102.248 302.629L101 302.141L98.9926 302.629L96.117 304.526L100.62 303.225L101.271 304.201L107.077 302.303L107.24 303.062L109.519 300.785L114.293 297.478L114.673 297.695L118.851 294.388L117.766 293.087L119.177 290.755L122.866 286.364L125.688 285.822L126.556 286.418L123.138 287.394L122.215 291.026L122.324 292.978L123.517 292.87L129.269 289.4L129.703 288.099L129.215 286.093L130.951 286.526L132.199 285.713L135.78 287.882L135.508 288.478L143.647 289.508L145.546 288.912L146.089 289.725L153.142 293.087L154.336 292.382L154.445 288.315L155.367 290.159L159.925 293.466L160.305 294.822L164.265 297.044L165.296 299.918L166.273 297.695L168.28 301.599L169.637 299.376L168.552 296.611L164.374 296.177L157.971 290.05L154.499 287.502L151.84 290.105H150.267L146.631 287.719L143.05 287.556L137.95 255.406L137.082 253.888L135.02 252.641L131.927 253.237L129.54 252.749L126.502 251.556L123.3 251.773L122.486 250.255L119.936 249.876L119.502 248.954L118.363 250.255L118.037 247.815Z" fill="#F9F9F9" stroke="black" stroke-width="0.970631" stroke-linejoin="round"/>
<rect x="296" y="167" width="128" height="32" rx="7" fill="#1A1718"/>
<path d="M334.138 189.18C332.578 189.18 331.366 188.748 330.502 187.884C329.638 187.02 329.176 185.85 329.116 184.374C329.104 184.014 329.098 183.45 329.098 182.682C329.098 181.902 329.104 181.338 329.116 180.99C329.164 179.526 329.62 178.368 330.484 177.516C331.36 176.652 332.578 176.22 334.138 176.22C335.194 176.22 336.088 176.412 336.82 176.796C337.552 177.18 338.104 177.642 338.476 178.182C338.848 178.71 339.046 179.202 339.07 179.658V179.694C339.07 179.79 339.028 179.874 338.944 179.946C338.872 180.006 338.788 180.036 338.692 180.036H337.684C337.576 180.036 337.492 180.012 337.432 179.964C337.384 179.916 337.336 179.826 337.288 179.694C337.096 179.13 336.742 178.656 336.226 178.272C335.71 177.888 335.014 177.696 334.138 177.696C333.13 177.696 332.338 177.972 331.762 178.524C331.186 179.076 330.88 179.928 330.844 181.08C330.832 181.428 330.826 181.962 330.826 182.682C330.826 183.39 330.832 183.924 330.844 184.284C330.88 185.448 331.186 186.306 331.762 186.858C332.338 187.41 333.13 187.686 334.138 187.686C335.158 187.686 335.974 187.41 336.586 186.858C337.198 186.294 337.504 185.454 337.504 184.338V183.564H334.75C334.63 183.564 334.528 183.522 334.444 183.438C334.372 183.354 334.336 183.252 334.336 183.132V182.592C334.336 182.472 334.372 182.37 334.444 182.286C334.528 182.202 334.63 182.16 334.75 182.16H338.782C338.914 182.16 339.016 182.202 339.088 182.286C339.172 182.358 339.214 182.46 339.214 182.592V184.302C339.214 185.274 339.01 186.132 338.602 186.876C338.206 187.608 337.624 188.178 336.856 188.586C336.088 188.982 335.182 189.18 334.138 189.18ZM345.375 189.18C344.151 189.18 343.173 188.802 342.441 188.046C341.709 187.278 341.307 186.234 341.235 184.914L341.217 184.302L341.235 183.708C341.307 182.412 341.709 181.38 342.441 180.612C343.173 179.844 344.151 179.46 345.375 179.46C346.695 179.46 347.715 179.88 348.435 180.72C349.167 181.56 349.533 182.7 349.533 184.14V184.464C349.533 184.584 349.491 184.686 349.407 184.77C349.335 184.842 349.239 184.878 349.119 184.878H342.873V185.04C342.909 185.82 343.149 186.486 343.593 187.038C344.037 187.59 344.625 187.866 345.357 187.866C345.921 187.866 346.377 187.758 346.725 187.542C347.085 187.314 347.355 187.08 347.535 186.84C347.643 186.696 347.727 186.612 347.787 186.588C347.847 186.552 347.949 186.534 348.093 186.534H348.885C348.993 186.534 349.083 186.564 349.155 186.624C349.239 186.684 349.281 186.762 349.281 186.858C349.281 187.122 349.119 187.44 348.795 187.812C348.471 188.184 348.009 188.508 347.409 188.784C346.821 189.048 346.143 189.18 345.375 189.18ZM347.895 183.654V183.6C347.895 182.76 347.667 182.076 347.211 181.548C346.755 181.02 346.143 180.756 345.375 180.756C344.595 180.756 343.983 181.02 343.539 181.548C343.095 182.076 342.873 182.76 342.873 183.6V183.654H347.895ZM355.619 189.18C354.299 189.18 353.279 188.808 352.559 188.064C351.851 187.32 351.473 186.33 351.425 185.094L351.407 184.32L351.425 183.546C351.473 182.31 351.857 181.32 352.577 180.576C353.309 179.832 354.323 179.46 355.619 179.46C356.915 179.46 357.923 179.832 358.643 180.576C359.375 181.32 359.765 182.31 359.813 183.546C359.837 183.81 359.849 184.068 359.849 184.32C359.849 184.572 359.837 184.83 359.813 185.094C359.765 186.33 359.381 187.32 358.661 188.064C357.953 188.808 356.939 189.18 355.619 189.18ZM355.619 187.83C356.387 187.83 356.993 187.59 357.437 187.11C357.893 186.618 358.139 185.916 358.175 185.004C358.187 184.884 358.193 184.656 358.193 184.32C358.193 183.984 358.187 183.756 358.175 183.636C358.139 182.724 357.893 182.028 357.437 181.548C356.993 181.056 356.387 180.81 355.619 180.81C354.851 180.81 354.239 181.056 353.783 181.548C353.339 182.028 353.099 182.724 353.063 183.636L353.045 184.32L353.063 185.004C353.099 185.916 353.339 186.618 353.783 187.11C354.239 187.59 354.851 187.83 355.619 187.83ZM362.636 189C362.516 189 362.414 188.964 362.33 188.892C362.258 188.808 362.222 188.706 362.222 188.586V180.072C362.222 179.952 362.258 179.85 362.33 179.766C362.414 179.682 362.516 179.64 362.636 179.64H363.392C363.524 179.64 363.626 179.682 363.698 179.766C363.782 179.838 363.824 179.94 363.824 180.072V180.864C364.316 180.048 365.15 179.64 366.326 179.64H367.028C367.16 179.64 367.262 179.676 367.334 179.748C367.406 179.82 367.442 179.922 367.442 180.054V180.72C367.442 180.84 367.406 180.942 367.334 181.026C367.262 181.098 367.16 181.134 367.028 181.134H366.002C365.342 181.134 364.82 181.326 364.436 181.71C364.064 182.094 363.878 182.616 363.878 183.276V188.586C363.878 188.706 363.836 188.808 363.752 188.892C363.668 188.964 363.566 189 363.446 189H362.636ZM372.694 192.96C371.698 192.96 370.9 192.792 370.3 192.456C369.7 192.12 369.274 191.736 369.022 191.304C368.782 190.872 368.662 190.5 368.662 190.188C368.662 190.08 368.704 189.984 368.788 189.9C368.872 189.828 368.968 189.792 369.076 189.792H369.868C369.976 189.792 370.066 189.816 370.138 189.864C370.21 189.924 370.27 190.026 370.318 190.17C370.654 191.13 371.416 191.61 372.604 191.61C373.504 191.61 374.17 191.418 374.602 191.034C375.034 190.65 375.25 189.972 375.25 189V187.758C374.554 188.646 373.582 189.09 372.334 189.09C371.062 189.09 370.108 188.682 369.472 187.866C368.848 187.05 368.518 186.018 368.482 184.77L368.464 184.266L368.482 183.78C368.518 182.544 368.848 181.518 369.472 180.702C370.108 179.874 371.062 179.46 372.334 179.46C373.594 179.46 374.578 179.922 375.286 180.846V180.072C375.286 179.952 375.322 179.85 375.394 179.766C375.478 179.682 375.58 179.64 375.7 179.64H376.474C376.594 179.64 376.69 179.682 376.762 179.766C376.846 179.85 376.888 179.952 376.888 180.072V188.802C376.888 191.574 375.49 192.96 372.694 192.96ZM372.658 187.686C373.498 187.686 374.128 187.416 374.548 186.876C374.98 186.324 375.214 185.664 375.25 184.896C375.262 184.788 375.268 184.578 375.268 184.266C375.268 183.966 375.262 183.762 375.25 183.654C375.214 182.886 374.98 182.232 374.548 181.692C374.128 181.14 373.498 180.864 372.658 180.864C371.794 180.864 371.164 181.14 370.768 181.692C370.384 182.232 370.174 182.934 370.138 183.798L370.12 184.266L370.138 184.752C370.174 185.616 370.384 186.324 370.768 186.876C371.164 187.416 371.794 187.686 372.658 187.686ZM379.972 177.876C379.852 177.876 379.75 177.84 379.666 177.768C379.594 177.684 379.558 177.582 379.558 177.462V176.526C379.558 176.406 379.594 176.304 379.666 176.22C379.75 176.136 379.852 176.094 379.972 176.094H381.034C381.154 176.094 381.256 176.136 381.34 176.22C381.424 176.304 381.466 176.406 381.466 176.526V177.462C381.466 177.582 381.424 177.684 381.34 177.768C381.256 177.84 381.154 177.876 381.034 177.876H379.972ZM380.116 189C379.996 189 379.894 188.964 379.81 188.892C379.738 188.808 379.702 188.706 379.702 188.586V180.054C379.702 179.934 379.738 179.838 379.81 179.766C379.894 179.682 379.996 179.64 380.116 179.64H380.908C381.028 179.64 381.124 179.682 381.196 179.766C381.28 179.838 381.322 179.934 381.322 180.054V188.586C381.322 188.706 381.28 188.808 381.196 188.892C381.124 188.964 381.028 189 380.908 189H380.116ZM386.718 189.18C386.13 189.18 385.584 189.06 385.08 188.82C384.588 188.58 384.192 188.256 383.892 187.848C383.604 187.428 383.46 186.966 383.46 186.462C383.46 185.67 383.784 185.022 384.432 184.518C385.08 184.014 385.962 183.678 387.078 183.51L389.778 183.132V182.61C389.778 181.374 389.064 180.756 387.636 180.756C387.084 180.756 386.64 180.87 386.304 181.098C385.968 181.314 385.722 181.572 385.566 181.872C385.518 181.992 385.464 182.076 385.404 182.124C385.356 182.16 385.284 182.178 385.188 182.178H384.486C384.378 182.178 384.282 182.142 384.198 182.07C384.126 181.986 384.09 181.89 384.09 181.782C384.09 181.506 384.216 181.188 384.468 180.828C384.732 180.456 385.134 180.138 385.674 179.874C386.214 179.598 386.874 179.46 387.654 179.46C388.998 179.46 389.958 179.772 390.534 180.396C391.122 181.02 391.416 181.8 391.416 182.736V188.586C391.416 188.706 391.374 188.808 391.29 188.892C391.218 188.964 391.122 189 391.002 189H390.21C390.09 189 389.994 188.964 389.922 188.892C389.85 188.808 389.814 188.706 389.814 188.586V187.794C389.55 188.19 389.166 188.52 388.662 188.784C388.158 189.048 387.51 189.18 386.718 189.18ZM387.078 187.866C387.87 187.866 388.518 187.608 389.022 187.092C389.526 186.576 389.778 185.826 389.778 184.842V184.338L387.672 184.644C386.808 184.764 386.154 184.968 385.71 185.256C385.266 185.544 385.044 185.904 385.044 186.336C385.044 186.828 385.242 187.206 385.638 187.47C386.046 187.734 386.526 187.866 387.078 187.866Z" fill="white"/>
</svg>
