<svg width="357" height="308" viewBox="0 0 357 308" fill="none" xmlns="http://www.w3.org/2000/svg">
<rect width="357" height="307.515" rx="20" fill="white"/>
<mask id="mask0" mask-type="alpha" maskUnits="userSpaceOnUse" x="0" y="0" width="357" height="308">
<rect width="357" height="307.515" rx="20" fill="white"/>
</mask>
<g mask="url(#mask0)">
<rect x="23.5645" y="153.168" width="309.871" height="1.17822" fill="#F1F1F5"/>
<path opacity="0.1" fill-rule="evenodd" clip-rule="evenodd" d="M76.5841 117.822C99.359 117.822 117.822 99.3592 117.822 76.5843C117.822 53.8094 99.359 35.3467 76.5841 35.3467C53.8092 35.3467 35.3464 53.8094 35.3464 76.5843C35.3464 99.3592 53.8092 117.822 76.5841 117.822Z" stroke="#8C17FF" stroke-width="3"/>
<path fill-rule="evenodd" clip-rule="evenodd" d="M85.6886 69.105C87.3618 71.1394 88.3664 73.7444 88.3664 76.5841C88.3664 83.0912 83.0913 88.3663 76.5842 88.3663C70.0771 88.3663 64.802 83.0912 64.802 76.5841C64.802 70.077 70.0771 64.8019 76.5842 64.8019C79.403 64.8019 81.9905 65.7918 84.0183 67.4428L84.6673 66.7938L84.9757 65.151C85.0958 64.5114 85.7116 64.0903 86.3511 64.2104C86.9906 64.3304 87.4118 64.9462 87.2917 65.5858L87.2245 65.9439L87.5826 65.8766C88.2221 65.7566 88.8379 66.1777 88.9579 66.8172C89.078 67.4568 88.6569 68.0725 88.0173 68.1926L86.2737 68.52L85.6886 69.105ZM82.3411 69.1201C80.7487 67.8901 78.7519 67.1583 76.5842 67.1583C71.3785 67.1583 67.1584 71.3784 67.1584 76.5841C67.1584 81.7898 71.3785 86.0098 76.5842 86.0098C81.7899 86.0098 86.0099 81.7898 86.0099 76.5841C86.0099 74.3954 85.264 72.381 84.0124 70.7812L82.3295 72.4641C83.1628 73.6241 83.6535 75.0468 83.6535 76.5841C83.6535 80.4884 80.4885 83.6534 76.5842 83.6534C72.6799 83.6534 69.5149 80.4884 69.5149 76.5841C69.5149 72.6798 72.6799 69.5148 76.5842 69.5148C78.1004 69.5148 79.5052 69.9921 80.6564 70.8048L82.3411 69.1201ZM78.9525 72.5086C78.2566 72.1034 77.4475 71.8712 76.5842 71.8712C73.9813 71.8712 71.8713 73.9812 71.8713 76.5841C71.8713 79.1869 73.9813 81.297 76.5842 81.297C79.187 81.297 81.2971 79.1869 81.2971 76.5841C81.2971 75.6994 81.0533 74.8717 80.6293 74.1644L78.852 75.9417C78.9097 76.1459 78.9406 76.3614 78.9406 76.5841C78.9406 77.8855 77.8856 78.9405 76.5842 78.9405C75.2828 78.9405 74.2277 77.8855 74.2277 76.5841C74.2277 75.2827 75.2828 74.2277 76.5842 74.2277C76.7836 74.2277 76.9772 74.2524 77.1621 74.299L78.9525 72.5086Z" fill="#8C17FF"/>
<path d="M35.3464 76.5843C35.3464 99.3592 53.8092 117.822 76.5841 117.822V117.822C99.359 117.822 117.822 99.3592 117.822 76.5843C117.822 53.8094 99.359 35.3467 76.5841 35.3467" stroke="#8C17FF" stroke-width="3" stroke-linecap="round" stroke-linejoin="round"/>
<path d="M164.76 53.464L158.376 68.416H154.968L161.4 53.848H153.192V50.968H164.76V53.464ZM166.872 59.44C166.872 56.672 167.368 54.504 168.36 52.936C169.368 51.368 171.032 50.584 173.352 50.584C175.672 50.584 177.328 51.368 178.32 52.936C179.328 54.504 179.832 56.672 179.832 59.44C179.832 62.224 179.328 64.408 178.32 65.992C177.328 67.576 175.672 68.368 173.352 68.368C171.032 68.368 169.368 67.576 168.36 65.992C167.368 64.408 166.872 62.224 166.872 59.44ZM176.52 59.44C176.52 58.256 176.44 57.264 176.28 56.464C176.136 55.648 175.832 54.984 175.368 54.472C174.92 53.96 174.248 53.704 173.352 53.704C172.456 53.704 171.776 53.96 171.312 54.472C170.864 54.984 170.56 55.648 170.4 56.464C170.256 57.264 170.184 58.256 170.184 59.44C170.184 60.656 170.256 61.68 170.4 62.512C170.544 63.328 170.848 63.992 171.312 64.504C171.776 65 172.456 65.248 173.352 65.248C174.248 65.248 174.928 65 175.392 64.504C175.856 63.992 176.16 63.328 176.304 62.512C176.448 61.68 176.52 60.656 176.52 59.44ZM182.104 55.216C182.104 54 182.456 53.048 183.16 52.36C183.88 51.672 184.8 51.328 185.92 51.328C187.04 51.328 187.952 51.672 188.656 52.36C189.376 53.048 189.736 54 189.736 55.216C189.736 56.448 189.376 57.408 188.656 58.096C187.952 58.784 187.04 59.128 185.92 59.128C184.8 59.128 183.88 58.784 183.16 58.096C182.456 57.408 182.104 56.448 182.104 55.216ZM197.512 51.616L188.08 68.416H184.816L194.224 51.616H197.512ZM185.896 53.344C185.016 53.344 184.576 53.968 184.576 55.216C184.576 56.48 185.016 57.112 185.896 57.112C186.328 57.112 186.664 56.96 186.904 56.656C187.144 56.336 187.264 55.856 187.264 55.216C187.264 53.968 186.808 53.344 185.896 53.344ZM192.64 64.792C192.64 63.56 192.992 62.608 193.696 61.936C194.416 61.248 195.336 60.904 196.456 60.904C197.576 60.904 198.48 61.248 199.168 61.936C199.872 62.608 200.224 63.56 200.224 64.792C200.224 66.024 199.872 66.984 199.168 67.672C198.48 68.36 197.576 68.704 196.456 68.704C195.32 68.704 194.4 68.36 193.696 67.672C192.992 66.984 192.64 66.024 192.64 64.792ZM196.432 62.92C195.52 62.92 195.064 63.544 195.064 64.792C195.064 66.056 195.52 66.688 196.432 66.688C197.328 66.688 197.776 66.056 197.776 64.792C197.776 63.544 197.328 62.92 196.432 62.92Z" fill="#171725"/>
<path d="M148.155 100V90.0469H150.965C151.831 90.0469 152.596 90.2383 153.262 90.6211C153.927 91.0039 154.44 91.5485 154.8 92.2549C155.164 92.9613 155.349 93.7725 155.354 94.6885V95.3242C155.354 96.263 155.171 97.0856 154.807 97.792C154.447 98.4984 153.929 99.0407 153.255 99.4189C152.585 99.7972 151.803 99.9909 150.91 100H148.155ZM149.468 91.127V98.9268H150.849C151.86 98.9268 152.646 98.6123 153.207 97.9834C153.772 97.3545 154.055 96.459 154.055 95.2969V94.7158C154.055 93.5856 153.788 92.7083 153.255 92.084C152.726 91.4551 151.974 91.1361 150.999 91.127H149.468ZM158.619 100H157.354V92.6035H158.619V100ZM157.251 90.6416C157.251 90.4365 157.313 90.2633 157.436 90.1221C157.564 89.9808 157.75 89.9102 157.996 89.9102C158.243 89.9102 158.429 89.9808 158.557 90.1221C158.685 90.2633 158.748 90.4365 158.748 90.6416C158.748 90.8467 158.685 91.0176 158.557 91.1543C158.429 91.291 158.243 91.3594 157.996 91.3594C157.75 91.3594 157.564 91.291 157.436 91.1543C157.313 91.0176 157.251 90.8467 157.251 90.6416ZM164.324 93.7383C164.133 93.7064 163.925 93.6904 163.702 93.6904C162.873 93.6904 162.31 94.0436 162.013 94.75V100H160.749V92.6035H161.979L162 93.458C162.415 92.7972 163.002 92.4668 163.763 92.4668C164.01 92.4668 164.196 92.4987 164.324 92.5625V93.7383ZM168.526 100.137C167.523 100.137 166.707 99.8086 166.078 99.1523C165.449 98.4915 165.135 97.6097 165.135 96.5068V96.2744C165.135 95.5407 165.274 94.8867 165.552 94.3125C165.835 93.7337 166.226 93.2826 166.728 92.959C167.234 92.6309 167.78 92.4668 168.368 92.4668C169.33 92.4668 170.077 92.7835 170.611 93.417C171.144 94.0505 171.41 94.9574 171.41 96.1377V96.6641H166.4C166.418 97.3932 166.63 97.9834 167.035 98.4346C167.446 98.8812 167.965 99.1045 168.594 99.1045C169.041 99.1045 169.419 99.0133 169.729 98.8311C170.039 98.6488 170.31 98.4072 170.542 98.1064L171.315 98.708C170.695 99.6605 169.765 100.137 168.526 100.137ZM168.368 93.5059C167.858 93.5059 167.43 93.6927 167.083 94.0664C166.737 94.4355 166.523 94.9551 166.441 95.625H170.146V95.5293C170.109 94.8867 169.936 94.39 169.626 94.0391C169.316 93.6836 168.897 93.5059 168.368 93.5059ZM175.947 99.1045C176.398 99.1045 176.792 98.9678 177.129 98.6943C177.467 98.4209 177.654 98.0791 177.69 97.6689H178.886C178.864 98.0928 178.718 98.4961 178.449 98.8789C178.18 99.2617 177.82 99.5671 177.369 99.7949C176.922 100.023 176.448 100.137 175.947 100.137C174.94 100.137 174.138 99.8018 173.541 99.1318C172.948 98.4574 172.652 97.5368 172.652 96.3701V96.1582C172.652 95.4382 172.784 94.7979 173.048 94.2373C173.313 93.6768 173.691 93.2415 174.183 92.9316C174.68 92.6217 175.266 92.4668 175.94 92.4668C176.769 92.4668 177.458 92.7152 178.004 93.2119C178.556 93.7087 178.85 94.3535 178.886 95.1465H177.69C177.654 94.668 177.471 94.276 177.143 93.9707C176.82 93.6608 176.419 93.5059 175.94 93.5059C175.297 93.5059 174.798 93.7383 174.443 94.2031C174.092 94.6634 173.917 95.3311 173.917 96.2061V96.4453C173.917 97.2975 174.092 97.9538 174.443 98.4141C174.794 98.8743 175.295 99.1045 175.947 99.1045ZM182.124 90.8125V92.6035H183.505V93.5811H182.124V98.168C182.124 98.4642 182.186 98.6875 182.309 98.8379C182.432 98.9837 182.641 99.0566 182.938 99.0566C183.083 99.0566 183.284 99.0293 183.539 98.9746V100C183.206 100.091 182.883 100.137 182.568 100.137C182.003 100.137 181.577 99.9658 181.29 99.624C181.003 99.2822 180.859 98.7969 180.859 98.168V93.5811H179.513V92.6035H180.859V90.8125H182.124ZM186.462 100H185.198V89.5H186.462V100ZM191.013 98.1475L192.735 92.6035H194.089L191.115 101.142C190.655 102.372 189.923 102.987 188.921 102.987L188.681 102.967L188.21 102.878V101.853L188.552 101.88C188.98 101.88 189.313 101.793 189.55 101.62C189.791 101.447 189.989 101.13 190.144 100.67L190.425 99.918L187.786 92.6035H189.167L191.013 98.1475ZM198.561 96.2334C198.561 95.5088 198.702 94.8571 198.985 94.2783C199.272 93.6995 199.669 93.2529 200.174 92.9385C200.685 92.624 201.266 92.4668 201.918 92.4668C202.925 92.4668 203.738 92.8154 204.358 93.5127C204.982 94.21 205.295 95.1374 205.295 96.2949V96.3838C205.295 97.1038 205.156 97.751 204.878 98.3252C204.604 98.8949 204.21 99.3392 203.695 99.6582C203.185 99.9772 202.597 100.137 201.931 100.137C200.929 100.137 200.115 99.7881 199.491 99.0908C198.871 98.3936 198.561 97.4707 198.561 96.3223V96.2334ZM199.833 96.3838C199.833 97.2041 200.022 97.8626 200.4 98.3594C200.783 98.8561 201.293 99.1045 201.931 99.1045C202.574 99.1045 203.084 98.8538 203.463 98.3525C203.841 97.8467 204.03 97.1403 204.03 96.2334C204.03 95.4222 203.836 94.766 203.449 94.2646C203.066 93.7588 202.556 93.5059 201.918 93.5059C201.293 93.5059 200.79 93.7542 200.407 94.251C200.024 94.7477 199.833 95.4587 199.833 96.3838ZM208.177 92.6035L208.218 93.5332C208.783 92.8223 209.521 92.4668 210.433 92.4668C211.996 92.4668 212.784 93.3486 212.798 95.1123V100H211.533V95.1055C211.529 94.5723 211.406 94.1781 211.164 93.9229C210.927 93.6676 210.556 93.54 210.05 93.54C209.64 93.54 209.28 93.6494 208.97 93.8682C208.66 94.0869 208.418 94.374 208.245 94.7295V100H206.98V92.6035H208.177ZM220.094 90.8125V92.6035H221.474V93.5811H220.094V98.168C220.094 98.4642 220.155 98.6875 220.278 98.8379C220.401 98.9837 220.611 99.0566 220.907 99.0566C221.053 99.0566 221.253 99.0293 221.509 98.9746V100C221.176 100.091 220.852 100.137 220.538 100.137C219.973 100.137 219.547 99.9658 219.26 99.624C218.972 99.2822 218.829 98.7969 218.829 98.168V93.5811H217.482V92.6035H218.829V90.8125H220.094ZM224.322 93.499C224.883 92.8109 225.612 92.4668 226.51 92.4668C228.073 92.4668 228.862 93.3486 228.875 95.1123V100H227.611V95.1055C227.606 94.5723 227.483 94.1781 227.241 93.9229C227.004 93.6676 226.633 93.54 226.127 93.54C225.717 93.54 225.357 93.6494 225.047 93.8682C224.737 94.0869 224.496 94.374 224.322 94.7295V100H223.058V89.5H224.322V93.499ZM233.938 100.137C232.935 100.137 232.12 99.8086 231.491 99.1523C230.862 98.4915 230.547 97.6097 230.547 96.5068V96.2744C230.547 95.5407 230.686 94.8867 230.964 94.3125C231.247 93.7337 231.639 93.2826 232.14 92.959C232.646 92.6309 233.193 92.4668 233.781 92.4668C234.742 92.4668 235.49 92.7835 236.023 93.417C236.556 94.0505 236.823 94.9574 236.823 96.1377V96.6641H231.812C231.83 97.3932 232.042 97.9834 232.448 98.4346C232.858 98.8812 233.378 99.1045 234.006 99.1045C234.453 99.1045 234.831 99.0133 235.141 98.8311C235.451 98.6488 235.722 98.4072 235.955 98.1064L236.727 98.708C236.107 99.6605 235.178 100.137 233.938 100.137ZM233.781 93.5059C233.27 93.5059 232.842 93.6927 232.496 94.0664C232.149 94.4355 231.935 94.9551 231.853 95.625H235.558V95.5293C235.522 94.8867 235.349 94.39 235.039 94.0391C234.729 93.6836 234.31 93.5059 233.781 93.5059ZM248.213 96.3838C248.213 97.5094 247.956 98.4163 247.441 99.1045C246.926 99.7926 246.229 100.137 245.349 100.137C244.451 100.137 243.745 99.8519 243.23 99.2822V102.844H241.965V92.6035H243.121L243.182 93.4238C243.697 92.7858 244.412 92.4668 245.329 92.4668C246.217 92.4668 246.919 92.8018 247.434 93.4717C247.954 94.1416 248.213 95.0736 248.213 96.2676V96.3838ZM246.949 96.2402C246.949 95.4062 246.771 94.7477 246.415 94.2646C246.06 93.7816 245.572 93.54 244.953 93.54C244.187 93.54 243.613 93.8796 243.23 94.5586V98.0928C243.608 98.7673 244.187 99.1045 244.966 99.1045C245.572 99.1045 246.053 98.8652 246.409 98.3867C246.769 97.9036 246.949 97.1882 246.949 96.2402ZM254.493 99.2686C254.001 99.8473 253.278 100.137 252.326 100.137C251.538 100.137 250.936 99.9089 250.521 99.4531C250.111 98.9928 249.904 98.3138 249.899 97.416V92.6035H251.164V97.3818C251.164 98.5029 251.62 99.0635 252.531 99.0635C253.497 99.0635 254.14 98.7035 254.459 97.9834V92.6035H255.723V100H254.52L254.493 99.2686ZM261.326 93.7383C261.135 93.7064 260.928 93.6904 260.704 93.6904C259.875 93.6904 259.312 94.0436 259.016 94.75V100H257.751V92.6035H258.982L259.002 93.458C259.417 92.7972 260.005 92.4668 260.766 92.4668C261.012 92.4668 261.199 92.4987 261.326 92.5625V93.7383ZM268.843 96.3838C268.843 97.5094 268.586 98.4163 268.071 99.1045C267.556 99.7926 266.859 100.137 265.979 100.137C265.081 100.137 264.375 99.8519 263.86 99.2822V102.844H262.595V92.6035H263.751L263.812 93.4238C264.327 92.7858 265.043 92.4668 265.959 92.4668C266.847 92.4668 267.549 92.8018 268.064 93.4717C268.584 94.1416 268.843 95.0736 268.843 96.2676V96.3838ZM267.579 96.2402C267.579 95.4062 267.401 94.7477 267.046 94.2646C266.69 93.7816 266.202 93.54 265.583 93.54C264.817 93.54 264.243 93.8796 263.86 94.5586V98.0928C264.238 98.7673 264.817 99.1045 265.596 99.1045C266.202 99.1045 266.683 98.8652 267.039 98.3867C267.399 97.9036 267.579 97.1882 267.579 96.2402ZM270.222 96.2334C270.222 95.5088 270.363 94.8571 270.646 94.2783C270.933 93.6995 271.329 93.2529 271.835 92.9385C272.345 92.624 272.926 92.4668 273.578 92.4668C274.585 92.4668 275.399 92.8154 276.019 93.5127C276.643 94.21 276.955 95.1374 276.955 96.2949V96.3838C276.955 97.1038 276.816 97.751 276.538 98.3252C276.265 98.8949 275.87 99.3392 275.355 99.6582C274.845 99.9772 274.257 100.137 273.592 100.137C272.589 100.137 271.776 99.7881 271.151 99.0908C270.532 98.3936 270.222 97.4707 270.222 96.3223V96.2334ZM271.493 96.3838C271.493 97.2041 271.682 97.8626 272.061 98.3594C272.443 98.8561 272.954 99.1045 273.592 99.1045C274.234 99.1045 274.745 98.8538 275.123 98.3525C275.501 97.8467 275.69 97.1403 275.69 96.2334C275.69 95.4222 275.497 94.766 275.109 94.2646C274.727 93.7588 274.216 93.5059 273.578 93.5059C272.954 93.5059 272.45 93.7542 272.067 94.251C271.685 94.7477 271.493 95.4587 271.493 96.3838ZM282.948 98.0381C282.948 97.6963 282.818 97.432 282.558 97.2451C282.303 97.0537 281.854 96.8896 281.211 96.7529C280.573 96.6162 280.065 96.4521 279.687 96.2607C279.313 96.0693 279.035 95.8415 278.853 95.5771C278.675 95.3128 278.586 94.9984 278.586 94.6338C278.586 94.0277 278.842 93.515 279.352 93.0957C279.867 92.6764 280.523 92.4668 281.321 92.4668C282.159 92.4668 282.838 92.6833 283.358 93.1162C283.882 93.5492 284.144 94.1029 284.144 94.7773H282.872C282.872 94.431 282.724 94.1325 282.428 93.8818C282.136 93.6312 281.767 93.5059 281.321 93.5059C280.86 93.5059 280.5 93.6061 280.241 93.8066C279.981 94.0072 279.851 94.2692 279.851 94.5928C279.851 94.8981 279.972 95.1283 280.213 95.2832C280.455 95.4382 280.89 95.5863 281.519 95.7275C282.152 95.8688 282.665 96.0374 283.057 96.2334C283.449 96.4294 283.738 96.6663 283.925 96.9443C284.117 97.2178 284.212 97.5527 284.212 97.9492C284.212 98.61 283.948 99.141 283.419 99.542C282.891 99.9385 282.205 100.137 281.362 100.137C280.769 100.137 280.245 100.032 279.789 99.8223C279.334 99.6126 278.976 99.321 278.716 98.9473C278.461 98.569 278.333 98.1611 278.333 97.7236H279.598C279.621 98.1475 279.789 98.4847 280.104 98.7354C280.423 98.9814 280.842 99.1045 281.362 99.1045C281.84 99.1045 282.223 99.0088 282.51 98.8174C282.802 98.6214 282.948 98.3617 282.948 98.0381ZM289.029 100.137C288.026 100.137 287.211 99.8086 286.582 99.1523C285.953 98.4915 285.638 97.6097 285.638 96.5068V96.2744C285.638 95.5407 285.777 94.8867 286.055 94.3125C286.338 93.7337 286.73 93.2826 287.231 92.959C287.737 92.6309 288.284 92.4668 288.872 92.4668C289.833 92.4668 290.581 92.7835 291.114 93.417C291.647 94.0505 291.914 94.9574 291.914 96.1377V96.6641H286.903C286.921 97.3932 287.133 97.9834 287.539 98.4346C287.949 98.8812 288.469 99.1045 289.097 99.1045C289.544 99.1045 289.922 99.0133 290.232 98.8311C290.542 98.6488 290.813 98.4072 291.046 98.1064L291.818 98.708C291.198 99.6605 290.269 100.137 289.029 100.137ZM288.872 93.5059C288.361 93.5059 287.933 93.6927 287.587 94.0664C287.24 94.4355 287.026 94.9551 286.944 95.625H290.649V95.5293C290.613 94.8867 290.44 94.39 290.13 94.0391C289.82 93.6836 289.401 93.5059 288.872 93.5059Z" fill="#696974"/>
<path opacity="0.1" fill-rule="evenodd" clip-rule="evenodd" d="M76.5841 272.168C99.359 272.168 117.822 253.705 117.822 230.93C117.822 208.156 99.359 189.693 76.5841 189.693C53.8092 189.693 35.3464 208.156 35.3464 230.93C35.3464 253.705 53.8092 272.168 76.5841 272.168Z" stroke="#3DD598" stroke-width="3"/>
<path d="M35.3464 230.93C35.3464 253.705 53.8092 272.168 76.5841 272.168V272.168C99.359 272.168 117.822 253.705 117.822 230.93C117.822 208.156 99.359 189.693 76.5841 189.693" stroke="#3DD598" stroke-width="3" stroke-linecap="round" stroke-linejoin="round"/>
<path fill-rule="evenodd" clip-rule="evenodd" d="M87.1881 226.218H65.9802V229.752C65.9802 230.403 66.5077 230.931 67.1584 230.931H86.0099C86.6606 230.931 87.1881 230.403 87.1881 229.752V226.218ZM70.6931 223.861C70.6931 221.909 72.2756 220.327 74.2277 220.327H78.9406C80.8927 220.327 82.4753 221.909 82.4753 223.861H87.1881C88.4896 223.861 89.5446 224.916 89.5446 226.218V238C89.5446 240.603 87.4345 242.713 84.8317 242.713H68.3367C65.7338 242.713 63.6238 240.603 63.6238 238V226.218C63.6238 224.916 64.6788 223.861 65.9802 223.861H70.6931ZM73.0495 223.861H80.1188C80.1188 223.211 79.5913 222.683 78.9406 222.683H74.2277C73.577 222.683 73.0495 223.211 73.0495 223.861ZM73.0495 233.287H67.1584C66.7453 233.287 66.3487 233.216 65.9802 233.086V238C65.9802 239.301 67.0352 240.356 68.3367 240.356H84.8317C86.1331 240.356 87.1881 239.301 87.1881 238V233.086C86.8196 233.216 86.423 233.287 86.0099 233.287H80.1188V235.172C80.1188 236.083 79.3803 236.822 78.4693 236.822H74.699C73.788 236.822 73.0495 236.083 73.0495 235.172V233.287ZM75.406 234.465H77.7624V233.287H75.406V234.465Z" fill="#3DD598"/>
<path d="M153.062 209.874C153.142 208.274 153.702 207.042 154.742 206.178C155.798 205.298 157.182 204.858 158.894 204.858C160.062 204.858 161.062 205.066 161.894 205.482C162.726 205.882 163.35 206.434 163.766 207.138C164.198 207.826 164.414 208.61 164.414 209.49C164.414 210.498 164.15 211.354 163.622 212.058C163.11 212.746 162.494 213.21 161.774 213.45V213.546C162.702 213.834 163.422 214.346 163.934 215.082C164.462 215.818 164.726 216.762 164.726 217.914C164.726 218.874 164.502 219.73 164.054 220.482C163.622 221.234 162.974 221.826 162.11 222.258C161.262 222.674 160.238 222.882 159.038 222.882C157.23 222.882 155.758 222.426 154.622 221.514C153.486 220.602 152.886 219.258 152.822 217.482H156.086C156.118 218.266 156.382 218.898 156.878 219.378C157.39 219.842 158.086 220.074 158.966 220.074C159.782 220.074 160.406 219.85 160.838 219.402C161.286 218.938 161.51 218.346 161.51 217.626C161.51 216.666 161.206 215.978 160.598 215.562C159.99 215.146 159.046 214.938 157.766 214.938H157.07V212.178H157.766C160.038 212.178 161.174 211.418 161.174 209.898C161.174 209.21 160.966 208.674 160.55 208.29C160.15 207.906 159.566 207.714 158.798 207.714C158.046 207.714 157.462 207.922 157.046 208.338C156.646 208.738 156.414 209.25 156.35 209.874H153.062ZM167.481 213.786C167.481 211.018 167.977 208.85 168.969 207.282C169.977 205.714 171.641 204.93 173.961 204.93C176.281 204.93 177.937 205.714 178.929 207.282C179.937 208.85 180.441 211.018 180.441 213.786C180.441 216.57 179.937 218.754 178.929 220.338C177.937 221.922 176.281 222.714 173.961 222.714C171.641 222.714 169.977 221.922 168.969 220.338C167.977 218.754 167.481 216.57 167.481 213.786ZM177.129 213.786C177.129 212.602 177.049 211.61 176.889 210.81C176.745 209.994 176.441 209.33 175.977 208.818C175.529 208.306 174.857 208.05 173.961 208.05C173.065 208.05 172.385 208.306 171.921 208.818C171.473 209.33 171.169 209.994 171.009 210.81C170.865 211.61 170.793 212.602 170.793 213.786C170.793 215.002 170.865 216.026 171.009 216.858C171.153 217.674 171.457 218.338 171.921 218.85C172.385 219.346 173.065 219.594 173.961 219.594C174.857 219.594 175.537 219.346 176.001 218.85C176.465 218.338 176.769 217.674 176.913 216.858C177.057 216.026 177.129 215.002 177.129 213.786ZM182.713 209.562C182.713 208.346 183.065 207.394 183.769 206.706C184.489 206.018 185.409 205.674 186.529 205.674C187.649 205.674 188.561 206.018 189.265 206.706C189.985 207.394 190.345 208.346 190.345 209.562C190.345 210.794 189.985 211.754 189.265 212.442C188.561 213.13 187.649 213.474 186.529 213.474C185.409 213.474 184.489 213.13 183.769 212.442C183.065 211.754 182.713 210.794 182.713 209.562ZM198.121 205.962L188.689 222.762H185.425L194.833 205.962H198.121ZM186.505 207.69C185.625 207.69 185.185 208.314 185.185 209.562C185.185 210.826 185.625 211.458 186.505 211.458C186.937 211.458 187.273 211.306 187.513 211.002C187.753 210.682 187.873 210.202 187.873 209.562C187.873 208.314 187.417 207.69 186.505 207.69ZM193.249 219.138C193.249 217.906 193.601 216.954 194.305 216.282C195.025 215.594 195.945 215.25 197.065 215.25C198.185 215.25 199.089 215.594 199.777 216.282C200.481 216.954 200.833 217.906 200.833 219.138C200.833 220.37 200.481 221.33 199.777 222.018C199.089 222.706 198.185 223.05 197.065 223.05C195.929 223.05 195.009 222.706 194.305 222.018C193.601 221.33 193.249 220.37 193.249 219.138ZM197.041 217.266C196.129 217.266 195.673 217.89 195.673 219.138C195.673 220.402 196.129 221.034 197.041 221.034C197.937 221.034 198.385 220.402 198.385 219.138C198.385 217.89 197.937 217.266 197.041 217.266Z" fill="#171725"/>
<path d="M155.812 250.345C155.812 251.32 155.647 252.172 155.319 252.901C154.991 253.626 154.526 254.18 153.925 254.562C153.323 254.945 152.621 255.137 151.819 255.137C151.035 255.137 150.34 254.945 149.734 254.562C149.128 254.175 148.657 253.626 148.319 252.915C147.987 252.2 147.816 251.372 147.807 250.434V249.716C147.807 248.759 147.973 247.913 148.306 247.18C148.638 246.446 149.108 245.885 149.714 245.498C150.325 245.106 151.022 244.91 151.806 244.91C152.603 244.91 153.305 245.104 153.911 245.491C154.522 245.874 154.991 246.432 155.319 247.166C155.647 247.895 155.812 248.745 155.812 249.716V250.345ZM154.506 249.702C154.506 248.522 154.269 247.617 153.795 246.988C153.321 246.355 152.658 246.038 151.806 246.038C150.976 246.038 150.322 246.355 149.844 246.988C149.37 247.617 149.126 248.492 149.112 249.613V250.345C149.112 251.489 149.352 252.389 149.83 253.045C150.313 253.697 150.976 254.022 151.819 254.022C152.667 254.022 153.323 253.715 153.788 253.1C154.253 252.48 154.492 251.593 154.506 250.44V249.702ZM160.122 253.284L161.954 247.604H163.246L160.594 255H159.63L156.951 247.604H158.243L160.122 253.284ZM167.537 255.137C166.534 255.137 165.719 254.809 165.09 254.152C164.461 253.492 164.146 252.61 164.146 251.507V251.274C164.146 250.541 164.285 249.887 164.563 249.312C164.846 248.734 165.238 248.283 165.739 247.959C166.245 247.631 166.792 247.467 167.38 247.467C168.341 247.467 169.089 247.784 169.622 248.417C170.155 249.05 170.422 249.957 170.422 251.138V251.664H165.411C165.429 252.393 165.641 252.983 166.047 253.435C166.457 253.881 166.976 254.104 167.605 254.104C168.052 254.104 168.43 254.013 168.74 253.831C169.05 253.649 169.321 253.407 169.554 253.106L170.326 253.708C169.706 254.66 168.776 255.137 167.537 255.137ZM167.38 248.506C166.869 248.506 166.441 248.693 166.095 249.066C165.748 249.436 165.534 249.955 165.452 250.625H169.157V250.529C169.121 249.887 168.947 249.39 168.638 249.039C168.328 248.684 167.908 248.506 167.38 248.506ZM175.567 248.738C175.375 248.706 175.168 248.69 174.945 248.69C174.115 248.69 173.552 249.044 173.256 249.75V255H171.991V247.604H173.222L173.242 248.458C173.657 247.797 174.245 247.467 175.006 247.467C175.252 247.467 175.439 247.499 175.567 247.562V248.738ZM178.1 248.499C178.661 247.811 179.39 247.467 180.288 247.467C181.851 247.467 182.639 248.349 182.653 250.112V255H181.388V250.105C181.384 249.572 181.261 249.178 181.019 248.923C180.782 248.668 180.411 248.54 179.905 248.54C179.495 248.54 179.135 248.649 178.825 248.868C178.515 249.087 178.273 249.374 178.1 249.729V255H176.836V244.5H178.1V248.499ZM187.716 255.137C186.713 255.137 185.897 254.809 185.269 254.152C184.64 253.492 184.325 252.61 184.325 251.507V251.274C184.325 250.541 184.464 249.887 184.742 249.312C185.025 248.734 185.417 248.283 185.918 247.959C186.424 247.631 186.971 247.467 187.559 247.467C188.52 247.467 189.268 247.784 189.801 248.417C190.334 249.05 190.601 249.957 190.601 251.138V251.664H185.59C185.608 252.393 185.82 252.983 186.226 253.435C186.636 253.881 187.155 254.104 187.784 254.104C188.231 254.104 188.609 254.013 188.919 253.831C189.229 253.649 189.5 253.407 189.732 253.106L190.505 253.708C189.885 254.66 188.955 255.137 187.716 255.137ZM187.559 248.506C187.048 248.506 186.62 248.693 186.273 249.066C185.927 249.436 185.713 249.955 185.631 250.625H189.336V250.529C189.299 249.887 189.126 249.39 188.816 249.039C188.507 248.684 188.087 248.506 187.559 248.506ZM196.737 255C196.664 254.854 196.605 254.594 196.559 254.221C195.971 254.831 195.269 255.137 194.454 255.137C193.724 255.137 193.125 254.932 192.656 254.521C192.191 254.107 191.958 253.583 191.958 252.949C191.958 252.179 192.25 251.582 192.833 251.158C193.421 250.73 194.246 250.516 195.308 250.516H196.538V249.935C196.538 249.493 196.406 249.142 196.142 248.882C195.878 248.618 195.488 248.485 194.973 248.485C194.522 248.485 194.144 248.599 193.838 248.827C193.533 249.055 193.38 249.331 193.38 249.654H192.109C192.109 249.285 192.239 248.93 192.498 248.588C192.763 248.242 193.118 247.968 193.565 247.768C194.016 247.567 194.51 247.467 195.048 247.467C195.9 247.467 196.568 247.681 197.051 248.109C197.534 248.533 197.785 249.119 197.803 249.866V253.271C197.803 253.95 197.89 254.49 198.063 254.891V255H196.737ZM194.638 254.036C195.035 254.036 195.411 253.934 195.766 253.729C196.121 253.523 196.379 253.257 196.538 252.929V251.411H195.547C193.998 251.411 193.223 251.865 193.223 252.771C193.223 253.168 193.355 253.478 193.62 253.701C193.884 253.924 194.223 254.036 194.638 254.036ZM199.578 251.24C199.578 250.105 199.847 249.194 200.385 248.506C200.922 247.813 201.626 247.467 202.497 247.467C203.363 247.467 204.049 247.763 204.554 248.355V244.5H205.819V255H204.657L204.596 254.207C204.09 254.827 203.386 255.137 202.483 255.137C201.626 255.137 200.927 254.786 200.385 254.084C199.847 253.382 199.578 252.466 199.578 251.336V251.24ZM200.843 251.384C200.843 252.222 201.016 252.879 201.362 253.353C201.708 253.826 202.187 254.063 202.798 254.063C203.6 254.063 204.185 253.703 204.554 252.983V249.586C204.176 248.889 203.595 248.54 202.811 248.54C202.192 248.54 201.708 248.779 201.362 249.258C201.016 249.736 200.843 250.445 200.843 251.384Z" fill="#696974"/>
</g>
</svg>
