<svg width="68" height="68" viewBox="0 0 68 68" fill="none" xmlns="http://www.w3.org/2000/svg">
<path d="M22.832 20.6044C22.9672 20.6033 23.1003 20.5713 23.2213 20.511C23.3381 20.4602 23.4438 20.3869 23.5322 20.2952C23.6206 20.2034 23.6899 20.0951 23.7363 19.9764C23.7826 19.8577 23.8049 19.731 23.8021 19.6036C23.7992 19.4763 23.7711 19.3507 23.7195 19.2342C23.127 17.9282 22.8128 16.5132 22.7967 15.0792C22.7806 13.6452 23.063 12.2235 23.6261 10.9045L23.7195 10.6865L23.8129 10.453C24.4763 8.88946 24.8103 7.20599 24.7942 5.50764C24.7782 3.80929 24.4123 2.13251 23.7195 0.581826C23.6139 0.34467 23.4186 0.159064 23.1763 0.0656727C22.9341 -0.0277183 22.6647 -0.0212874 22.4272 0.0835858C22.3083 0.133925 22.201 0.207966 22.1117 0.301204C22.0224 0.394441 21.953 0.504925 21.9078 0.625872C21.8626 0.746819 21.8426 0.875707 21.8489 1.00466C21.8552 1.13361 21.8878 1.25989 21.9446 1.37585C22.5305 2.68132 22.8399 4.09397 22.8533 5.52484C22.8667 6.95571 22.5838 8.37382 22.0224 9.69004L21.929 9.92362L21.8356 10.1416C21.1715 11.7081 20.8384 13.395 20.8572 15.0963C20.876 16.7977 21.2462 18.4768 21.9446 20.0283C22.0204 20.2003 22.1447 20.3464 22.3023 20.4488C22.46 20.5511 22.6441 20.6052 22.832 20.6044Z" fill="#1A1718"/>
<path d="M32.5633 20.6044C32.7037 20.6051 32.8423 20.5731 32.9681 20.511C33.2014 20.4056 33.3833 20.2119 33.4738 19.9725C33.5643 19.7331 33.556 19.4676 33.4508 19.2342C32.8645 17.9261 32.5549 16.5109 32.5415 15.0775C32.5281 13.6441 32.8112 12.2234 33.3729 10.9045L33.4663 10.6865L33.5598 10.453C34.2243 8.88932 34.5578 7.20491 34.539 5.50598C34.5203 3.80705 34.1497 2.13044 33.4508 0.58183C33.4001 0.464959 33.3267 0.359281 33.2349 0.270893C33.1432 0.182505 33.0348 0.113133 32.9162 0.066817C32.7975 0.0205012 32.6708 -0.00186775 32.5434 0.00100904C32.4161 0.00388583 32.2905 0.0319627 32.1741 0.0835898C31.9369 0.18921 31.7513 0.384546 31.6579 0.626779C31.5645 0.869012 31.571 1.13836 31.6758 1.37585C32.2679 2.67922 32.582 4.09167 32.5981 5.52313C32.6142 6.9546 32.3319 8.37369 31.7693 9.69004L31.6758 9.92362L31.5824 10.1416C30.9159 11.707 30.5802 13.3934 30.5963 15.0947C30.6123 16.7961 30.9799 18.4757 31.6758 20.0283C31.7548 20.198 31.8798 20.342 32.0368 20.4439C32.1937 20.5458 32.3762 20.6014 32.5633 20.6044Z" fill="#1A1718"/>
<path d="M42.31 20.6044C42.4501 20.603 42.5882 20.5711 42.7148 20.511C42.9481 20.4056 43.13 20.2119 43.2205 19.9725C43.311 19.7331 43.3027 19.4675 43.1975 19.2342C42.6123 17.9262 42.3021 16.5119 42.286 15.0791C42.2699 13.6462 42.5484 12.2253 43.104 10.9045L43.213 10.6865L43.3064 10.453C43.971 8.88931 44.3044 7.2049 44.2857 5.50597C44.2669 3.80704 43.8964 2.13043 43.1975 0.581821C43.1453 0.465277 43.0707 0.360125 42.978 0.272405C42.8852 0.184685 42.7761 0.116104 42.6568 0.070562C42.5375 0.0250201 42.4104 0.00341732 42.2828 0.0069872C42.1552 0.0105571 42.0295 0.0392353 41.913 0.0913735C41.7964 0.143512 41.6913 0.218075 41.6035 0.310844C41.5158 0.403613 41.4472 0.512768 41.4017 0.632044C41.3562 0.751321 41.3346 0.878408 41.3381 1.00603C41.3417 1.13366 41.3704 1.2593 41.4225 1.37584C42.0073 2.68123 42.3173 4.09298 42.3334 5.52327C42.3495 6.95356 42.0712 8.37183 41.5159 9.69003L41.4225 9.92361L41.3135 10.1416C40.6559 11.7097 40.3263 13.3959 40.345 15.0962C40.3637 16.7966 40.7304 18.4751 41.4225 20.0283C41.4999 20.1991 41.6246 20.3441 41.7819 20.4462C41.9392 20.5483 42.1225 20.6032 42.31 20.6044Z" fill="#1A1718"/>
<path d="M41.0017 41.639C36.1019 42.6976 31.0325 42.6976 26.1327 41.639C25.8811 41.588 25.6195 41.6377 25.404 41.7774C25.1886 41.9171 25.0366 42.1357 24.9806 42.3863C24.9292 42.6399 24.9784 42.9035 25.1179 43.1214C25.2573 43.3394 25.4761 43.4945 25.7279 43.554C30.8962 44.6543 36.2383 44.6543 41.4066 43.554C41.6584 43.4945 41.8771 43.3394 42.0166 43.1214C42.1561 42.9035 42.2053 42.6399 42.1539 42.3863C42.0979 42.1357 41.9458 41.9171 41.7304 41.7774C41.515 41.6377 41.2534 41.588 41.0017 41.639Z" fill="#1A1718"/>
<path d="M60.3861 27.2682L60.6975 24.5747C60.7111 24.4372 60.696 24.2983 60.6531 24.167C60.6102 24.0356 60.5405 23.9147 60.4483 23.8117C60.3567 23.7135 60.2458 23.6353 60.1226 23.5817C59.9994 23.5281 59.8665 23.5004 59.7322 23.5004H7.40255C7.26821 23.5004 7.13532 23.5281 7.01212 23.5817C6.88892 23.6353 6.77805 23.7135 6.68636 23.8117C6.59421 23.9147 6.52448 24.0356 6.48159 24.167C6.43871 24.2983 6.4236 24.4372 6.43724 24.5747L6.74863 27.2682C7.13048 30.6768 8.57379 33.8793 10.8746 36.4231C11.0578 36.6019 11.3036 36.702 11.5596 36.702C11.8156 36.702 12.0615 36.6019 12.2447 36.4231C12.337 36.3345 12.4105 36.2281 12.4606 36.1104C12.5108 35.9927 12.5367 35.866 12.5367 35.7381C12.5367 35.6101 12.5108 35.4835 12.4606 35.3657C12.4105 35.248 12.337 35.1416 12.2447 35.053C10.2205 32.811 8.95152 29.9899 8.61698 26.9879L8.43015 25.431H58.58L58.3932 26.9879C58.3932 27.3149 58.2998 27.6574 58.2375 27.9844H40.1455C40.0074 27.9669 39.8672 27.979 39.7341 28.0199C39.601 28.0608 39.4781 28.1296 39.3737 28.2216C39.2692 28.3137 39.1856 28.4269 39.1283 28.5537C39.071 28.6806 39.0413 28.8182 39.0413 28.9575C39.0413 29.0967 39.071 29.2344 39.1283 29.3613C39.1856 29.4881 39.2692 29.6013 39.3737 29.6934C39.4781 29.7854 39.601 29.8542 39.7341 29.8951C39.8672 29.936 40.0074 29.9481 40.1455 29.9306H57.8015C57.4938 30.8392 57.0974 31.7153 56.6182 32.5463H40.1455C40.0074 32.5288 39.8672 32.5409 39.7341 32.5818C39.601 32.6227 39.4781 32.6915 39.3737 32.7835C39.2692 32.8756 39.1856 32.9888 39.1283 33.1157C39.071 33.2426 39.0413 33.3802 39.0413 33.5194C39.0413 33.6586 39.071 33.7963 39.1283 33.9232C39.1856 34.05 39.2692 34.1633 39.3737 34.2553C39.4781 34.3474 39.601 34.4161 39.7341 34.457C39.8672 34.4979 40.0074 34.51 40.1455 34.4925H55.2793C55.1339 34.6794 54.9782 34.8662 54.8121 35.053C54.7085 35.1951 54.645 35.3625 54.6283 35.5376C54.6115 35.7126 54.6422 35.889 54.717 36.0482C54.7918 36.2074 54.908 36.3435 55.0535 36.4423C55.199 36.5412 55.3684 36.5991 55.5439 36.61C55.6783 36.6099 55.8111 36.5822 55.9343 36.5286C56.0575 36.4751 56.1684 36.3968 56.2601 36.2986C56.9233 35.5511 57.5223 34.749 58.0507 33.9009C58.0507 33.9009 58.0507 33.9008 58.0507 33.823C59.2945 31.8329 60.0914 29.5964 60.3861 27.2682Z" fill="#1A1718"/>
<path d="M50.437 37.1705H40.1455C40.0074 37.153 39.8671 37.1651 39.734 37.206C39.6009 37.2469 39.4781 37.3156 39.3736 37.4077C39.2692 37.4997 39.1855 37.613 39.1282 37.7399C39.0709 37.8667 39.0413 38.0044 39.0413 38.1436C39.0413 38.2828 39.0709 38.4204 39.1282 38.5473C39.1855 38.6742 39.2692 38.7875 39.3736 38.8795C39.4781 38.9716 39.6009 39.0403 39.734 39.0812C39.8671 39.1221 40.0074 39.1342 40.1455 39.1167H50.437C50.6739 39.0867 50.8917 38.9713 51.0496 38.7921C51.2075 38.613 51.2946 38.3824 51.2946 38.1436C51.2946 37.9048 51.2075 37.6742 51.0496 37.4951C50.8917 37.3159 50.6739 37.2005 50.437 37.1705Z" fill="#1A1718"/>
<path d="M66.5051 25.8669C66.0633 25.1692 65.4245 24.6182 64.6695 24.2838C63.9144 23.9494 63.0771 23.8465 62.2636 23.9882C61.45 24.1299 60.6969 24.5099 60.0994 25.0799C59.5019 25.6499 59.0869 26.3844 58.9071 27.1903L57.0855 35.3021C56.7379 35.0899 56.3599 34.9323 55.9644 34.835C54.9542 34.6099 53.8959 34.7946 53.0217 35.3488L46.1711 39.6616C44.3285 40.0892 42.5491 40.7539 40.8774 41.639C39.029 42.6887 37.4222 44.1156 36.1615 45.827C34.9007 47.5384 34.0143 49.496 33.5597 51.5724C33.1115 49.4955 32.2292 47.5368 30.9708 45.8249C29.7123 44.113 28.1061 42.6864 26.2575 41.639C24.5858 40.7539 22.8064 40.0892 20.9638 39.6616L14.0509 35.3644C13.1768 34.8102 12.1185 34.6254 11.1082 34.8506C10.7128 34.9479 10.3347 35.1054 9.98723 35.3177L8.16558 27.2059C7.86092 26.2018 7.1892 25.3494 6.28423 24.8185C5.37926 24.2875 4.30746 24.117 3.28239 24.3409C2.25732 24.5647 1.35421 25.1666 0.752983 26.0265C0.15176 26.8864 -0.103441 27.9412 0.0382182 28.9808L3.65039 45.0799C4.05348 46.9321 5.1729 48.5497 6.76432 49.5795L19.5781 57.6913C20.1794 58.0755 20.6743 58.605 21.0172 59.2308C21.36 59.8566 21.5398 60.5587 21.5399 61.2723V66.1456C21.5699 66.3825 21.6853 66.6003 21.8645 66.7582C22.0436 66.916 22.2742 67.0031 22.513 67.0031C22.7518 67.0031 22.9824 66.916 23.1615 66.7582C23.3407 66.6003 23.4561 66.3825 23.4861 66.1456V61.2723C23.4902 60.2295 23.2278 59.203 22.7237 58.2901C22.2196 57.3773 21.4905 56.6084 20.6057 56.0565L7.80748 47.9447C6.63796 47.1913 5.8063 46.0136 5.4876 44.6595L1.87543 28.5605C1.77962 28.1311 1.8132 27.6828 1.9719 27.2725C2.13061 26.8621 2.40734 26.508 2.76716 26.2548C3.12698 26.0016 3.55375 25.8607 3.99359 25.8499C4.43343 25.839 4.86662 25.9587 5.23848 26.1939C5.73444 26.5093 6.08669 27.007 6.21937 27.5796L8.33685 37.0615C7.96623 37.9276 7.9196 38.8981 8.20547 39.7957C8.49133 40.6933 9.09061 41.4581 9.89381 41.9503L10.8747 42.542C12.689 44.9794 14.832 47.1538 17.2427 49.0034C17.5721 49.2164 17.9559 49.33 18.3481 49.3304C18.4982 49.3465 18.6496 49.3465 18.7997 49.3304C19.0673 49.2707 19.3206 49.1589 19.545 49.0012C19.7694 48.8436 19.9606 48.6433 20.1075 48.4118C20.2529 48.1829 20.3512 47.9273 20.3967 47.66C20.4421 47.3926 20.4338 47.1189 20.3722 46.8548C20.2693 46.4508 20.0468 46.0872 19.7338 45.8116C19.7338 45.8116 19.656 45.8116 19.6248 45.7182C19.5759 45.6536 19.5182 45.596 19.4536 45.547L12.0268 41.0006L10.937 40.3467C10.6076 40.1372 10.3477 39.835 10.1898 39.478C10.0319 39.1211 9.98323 38.7254 10.0498 38.3408C10.1164 37.9563 10.2953 37.6 10.564 37.3169C10.8327 37.0339 11.1792 36.8366 11.5598 36.7501C11.8238 36.6876 12.0977 36.6789 12.3651 36.7243C12.6326 36.7698 12.8882 36.8686 13.1167 37.0148L20.1075 41.421C20.1987 41.4782 20.2986 41.5203 20.4033 41.5456C22.1292 41.9236 23.7951 42.5365 25.3545 43.3672C26.9849 44.2965 28.3979 45.5636 29.4988 47.0834C30.5997 48.6032 31.3632 50.3408 31.738 52.1796L32.6255 56.1032V66.1923C32.6555 66.4292 32.7709 66.647 32.9501 66.8049C33.1292 66.9627 33.3598 67.0498 33.5986 67.0498C33.8374 67.0498 34.068 66.9627 34.2471 66.8049C34.4263 66.647 34.5417 66.4292 34.5717 66.1923V56.1032L35.4592 52.1796C35.834 50.3408 36.5975 48.6032 37.6984 47.0834C38.7993 45.5636 40.2123 44.2965 41.8427 43.3672C43.4021 42.5365 45.068 41.9236 46.7939 41.5456C46.8986 41.5203 46.9985 41.4782 47.0897 41.421L54.0805 37.0148C54.309 36.8686 54.5646 36.7698 54.8321 36.7243C55.0996 36.6789 55.3734 36.6876 55.6374 36.7501C55.8898 36.8071 56.1285 36.9135 56.3396 37.0632C56.5507 37.2128 56.7301 37.4027 56.8675 37.622C57.1469 38.061 57.242 38.5925 57.1322 39.1011C57.0161 39.6062 56.7093 40.047 56.2758 40.3311L47.7281 45.547L47.6035 45.6715C47.6035 45.6715 47.4945 45.6715 47.4634 45.8116C47.1048 46.1315 46.8706 46.5678 46.8022 47.0435C46.7339 47.5192 46.8357 48.0038 47.0897 48.4118C47.384 48.8749 47.8478 49.2046 48.382 49.3304H48.8335C49.2444 49.3271 49.6452 49.2025 49.9856 48.9723C52.3826 47.1293 54.5149 44.9657 56.3225 42.542L57.319 41.9348C58.1123 41.4379 58.6991 40.6708 58.971 39.7751C59.2429 38.8793 59.1814 37.9155 58.7981 37.0615L60.9156 27.5796C61.0493 27.0056 61.4036 26.5074 61.9019 26.1927C62.4001 25.878 63.0023 25.7722 63.578 25.898C64.1513 26.0291 64.6495 26.3818 64.9637 26.8789C65.2786 27.3791 65.3848 27.9829 65.2595 28.5605L61.5384 44.7062C61.3875 45.3798 61.1049 46.0168 60.7067 46.5806C60.3085 47.1444 59.8028 47.6239 59.2185 47.9914L46.4046 56.1032C45.5298 56.6645 44.8093 57.4358 44.309 58.3468C43.8086 59.2578 43.5442 60.2796 43.5398 61.319V66.1923C43.5699 66.4292 43.6853 66.647 43.8644 66.8049C44.0436 66.9627 44.2741 67.0498 44.5129 67.0498C44.7517 67.0498 44.9823 66.9627 45.1615 66.8049C45.3406 66.647 45.456 66.4292 45.486 66.1923V61.319C45.4862 60.6054 45.6659 59.9033 46.0088 59.2775C46.3516 58.6517 46.8465 58.1222 47.4478 57.738L60.2616 49.6262C61.8531 48.5964 62.9725 46.9788 63.3756 45.1266L66.9877 28.9808C67.2367 27.9195 67.0636 26.803 66.5051 25.8669ZM18.3637 47.4153C17.8538 47.0433 17.3652 46.6431 16.9002 46.2165L18.4571 47.1818C18.4571 47.1818 18.535 47.3063 18.3637 47.4309V47.4153ZM48.8024 47.4153C48.7779 47.4342 48.7477 47.4445 48.7168 47.4445C48.6858 47.4445 48.6556 47.4342 48.6311 47.4153C48.6092 47.3922 48.597 47.3615 48.597 47.3297C48.597 47.2978 48.6092 47.2672 48.6311 47.2441L50.1881 46.2787C49.7472 46.6825 49.2846 47.0619 48.8024 47.4153Z" fill="#1A1718"/>
</svg>
