<svg width="24" height="19" viewBox="0 0 24 19" fill="none" xmlns="http://www.w3.org/2000/svg">
<path d="M24 2.25696C23.1174 2.62797 22.157 2.89498 21.1676 2.99897C22.1948 2.40434 22.9639 1.46492 23.3308 0.356964C22.367 0.915691 21.3111 1.30748 20.2101 1.51495C19.7499 1.03553 19.1933 0.6536 18.575 0.392961C17.9567 0.132323 17.2899 -0.00143844 16.6163 1.16653e-05C13.8906 1.16653e-05 11.6986 2.15297 11.6986 4.79498C11.6986 5.16599 11.7447 5.53699 11.8197 5.89394C7.73849 5.68596 4.09855 3.78596 1.67864 0.876934C1.23771 1.61084 1.00665 2.44647 1.00949 3.2969C1.00949 4.96081 1.87766 6.42797 3.20154 7.29084C2.42136 7.26089 1.65944 7.05193 0.977767 6.68092V6.73995C0.977767 9.06998 2.66795 11.0009 4.92056 11.445C4.49761 11.552 4.06251 11.6068 3.62553 11.608C3.30537 11.608 3.00252 11.5771 2.69679 11.5349C3.31979 13.4349 5.134 14.8149 7.29432 14.8599C5.60413 16.15 3.48708 16.9089 1.18832 16.9089C0.775868 16.9089 0.395145 16.8948 0 16.8499C2.18051 18.213 4.7677 19 7.5539 19C16.599 19 21.5484 11.6979 21.5484 5.35992C21.5484 5.15193 21.5484 4.94394 21.534 4.73596C22.4915 4.05297 23.3308 3.20696 24 2.25696Z" fill="white"/>
</svg>
